<?xml version="1.0" encoding="UTF-8"?>
<svg version="1.1" xmlns="http://www.w3.org/2000/svg" width="1024" height="1024">
<path d="M0 0 C6.48946578 0.00257994 12.97893033 0.00016971 19.46839619 -0.00138617 C31.09055287 -0.00350993 42.71270251 -0.0002439 54.33485797 0.00487317 C64.70699098 0.00930056 75.07911253 0.00853469 85.45124531 0.00395441 C190.68186513 -0.04087272 190.68186513 -0.04087272 229.91411781 0.43166065 C231.90641306 0.45401445 233.89876748 0.47088254 235.89111805 0.48759317 C249.92954778 0.61399803 263.54993094 1.4017724 277.43897724 3.50197077 C280.45818719 3.9533407 283.06368367 4.12688497 286.14857197 4.10042048 C289.1963625 4.1343255 289.1963625 4.1343255 292.1963625 6.1343255 C293.77353552 6.6867522 295.37052259 7.18397641 296.9776125 7.642138 C297.90187031 7.90639582 298.82612812 8.17065363 299.77839375 8.44291925 C300.74132343 8.71233332 301.70425312 8.98174738 302.6963625 9.2593255 C303.65929218 9.53647394 304.62222187 9.81362238 305.61433125 10.09916925 C310.82594365 11.63091018 310.82594365 11.63091018 316.1963625 12.1343255 C316.1963625 12.7943255 316.1963625 13.4543255 316.1963625 14.1343255 C316.74091084 14.29940607 317.28545918 14.46448664 317.84650898 14.63456964 C337.7944767 20.94548983 356.87568357 33.90343393 371.1963625 49.1343255 C371.1963625 49.7943255 371.1963625 50.4543255 371.1963625 51.1343255 C372.1863625 51.4643255 373.1763625 51.7943255 374.1963625 52.1343255 C376.00936629 54.13754609 377.67430893 56.12621398 379.3213625 58.2593255 C379.80637226 58.88460138 380.29138203 59.50987726 380.79108906 60.15410089 C394.92507531 78.73793252 404.4823786 100.29113362 409.1963625 123.1343255 C409.3819875 123.98768488 409.5676125 124.84104425 409.7588625 125.720263 C413.64025656 147.13724098 413.34969522 169.10108065 413.34174621 190.77351022 C413.34153912 194.30875876 413.34708971 197.84399956 413.35180378 201.37924433 C413.36004427 208.27921147 413.36285557 215.17917005 413.36341616 222.07914171 C413.36389433 227.69634073 413.36596396 233.31353697 413.36911678 238.93073511 C413.37790413 254.91586728 413.382539 270.90099278 413.38178631 286.88612738 C413.38172637 288.17373399 413.38172637 288.17373399 413.38166523 289.48735285 C413.38160391 290.77656154 413.38160391 290.77656154 413.38154135 292.09181485 C413.38113508 306.01367833 413.39070489 319.93551475 413.4048036 333.85737041 C413.41922237 348.2103724 413.42607082 362.56336123 413.42520982 376.91637063 C413.42487982 384.95121501 413.42753989 392.98603099 413.43838787 401.02086878 C413.44756554 407.86135624 413.44960916 414.7018024 413.44287845 421.5422934 C413.43964987 425.02066141 413.43942088 428.49895053 413.4482317 431.97731066 C413.53876149 475.81341264 408.78305946 520.71297126 380.1963625 556.1343255 C379.58663593 556.94385675 378.97690937 557.753388 378.34870625 558.5874505 C352.84236815 591.89757581 314.4286659 608.97889418 273.69245625 614.52104425 C262.16402966 615.89710348 250.64458076 616.28273839 239.04374409 616.26803827 C237.68870485 616.26991278 236.33366615 616.27221599 234.97862828 616.2749036 C231.30193731 616.28094903 227.62526933 616.2808967 223.94857454 616.27970922 C219.96475573 616.27950335 215.98094394 616.28504153 211.99712849 616.28976679 C204.20960977 616.29803386 196.42209863 616.30081983 188.63457589 616.30137917 C182.2973937 616.30185619 175.96021398 616.3039202 169.62303257 616.30707979 C151.61198561 616.31587549 133.60094459 616.32050085 115.58989547 616.31974932 C114.62117217 616.31970936 113.65244886 616.31966941 112.65437031 616.31962824 C111.68444909 616.31958736 110.71452787 616.31954648 109.7152151 616.31950436 C94.00698621 616.31909816 78.29878131 616.32866387 62.59055935 616.34276661 C46.4183739 616.35717005 30.24620013 616.36403462 14.07400811 616.36317283 C5.0118862 616.36284223 -4.05021054 616.36552865 -13.11232662 616.37635088 C-20.82911819 616.38550827 -28.54587317 616.3875885 -36.26266785 616.38084146 C-40.19036611 616.37760251 -44.1179944 616.37742303 -48.04568577 616.38619471 C-92.43417882 616.47904787 -141.78573347 612.07175344 -176.8036375 581.1343255 C-176.8036375 580.4743255 -176.8036375 579.8143255 -176.8036375 579.1343255 C-177.69115704 578.72053644 -177.69115704 578.72053644 -178.59660625 578.298388 C-185.20517139 574.81280852 -190.14003613 568.83219331 -194.8036375 563.1343255 C-195.948325 561.74600519 -195.948325 561.74600519 -197.1161375 560.329638 C-220.76789428 531.00482974 -231.15512207 495.2398021 -232.3661375 457.9780755 C-232.408596 456.68091608 -232.4510545 455.38375666 -232.49479961 454.04728937 C-233.0397776 436.08289516 -232.86801028 418.1099185 -232.79326153 400.1398797 C-232.77305864 395.17008984 -232.7576354 390.20032294 -232.74769878 385.23050165 C-232.74151029 382.98815085 -232.72903434 380.74590752 -232.71599102 378.5035882 C-232.68774544 370.36255505 -232.85607636 362.24700506 -233.16872215 354.111588 C-233.88534535 335.3624287 -233.88542603 316.64841965 -233.76896548 297.8885746 C-233.74702079 294.25368449 -233.72859823 290.61877932 -233.71003371 286.98387063 C-233.66600014 278.39075656 -233.61582088 269.79769396 -233.56169415 261.204638 C-233.50656179 252.43296945 -233.46253104 243.66129383 -233.42384309 234.88953865 C-233.38977995 227.26473671 -233.34840284 219.63999653 -233.30151778 212.01526272 C-233.27384911 207.50215591 -233.24871487 202.98907744 -233.2308588 198.4759202 C-232.89119818 116.00863546 -232.89119818 116.00863546 -212.8036375 80.1343255 C-212.25062969 79.09405207 -211.69762188 78.05377863 -211.12785625 76.98198175 C-191.76139681 41.80805421 -156.68292978 18.74843316 -118.8348875 7.6343255 C-102.1605964 3.02518537 -85.14973608 1.10387724 -67.89250469 0.56450129 C-66.58239296 0.52351879 -65.27228123 0.4825363 -63.92246914 0.44031191 C-42.6233361 -0.16622493 -21.3054409 -0.01117214 0 0 Z M-111.8036375 163.1343255 C-129.69812152 183.86059656 -135.49199165 210.14377931 -133.5277586 237.01054621 C-131.31019901 260.06381143 -121.41936576 280.79827972 -103.8036375 296.1343255 C-91.96579541 304.97705092 -77.90966006 310.71962263 -64.2411375 316.0718255 C-62.91634735 316.5960682 -61.59172422 317.12073313 -60.26726055 317.64580011 C-52.90655431 320.55688149 -45.52122208 323.40058699 -38.1161375 326.1968255 C-34.67597948 327.50244624 -31.23894418 328.81599446 -27.8036375 330.1343255 C-26.15259014 330.76636896 -26.15259014 330.76636896 -24.46818829 331.41118097 C-20.86436943 332.80090824 -17.2709048 334.21503468 -13.6786375 335.6343255 C-12.56400127 336.06108576 -11.44936504 336.48784601 -10.30095196 336.92753839 C0.57927729 341.27457066 11.06941332 347.13310913 16.1963625 358.1343255 C20.20304319 368.79416603 20.13032334 379.36376883 15.4932375 389.814013 C9.17151995 401.12455584 -0.85896552 405.46116626 -12.8036375 409.1343255 C-15.51406769 409.81070772 -18.01478097 410.05590423 -20.8036375 410.1343255 C-22.4143211 410.227138 -22.4143211 410.227138 -24.05754375 410.3218255 C-37.811382 410.78076484 -50.46208976 408.3316818 -61.8036375 400.1343255 C-62.7111375 399.5362005 -63.6186375 398.9380755 -64.5536375 398.3218255 C-74.93362485 388.23017114 -75.78674997 377.37075099 -76.8036375 363.1343255 C-98.2536375 363.1343255 -119.7036375 363.1343255 -141.8036375 363.1343255 C-141.80961561 373.90602579 -141.80961561 373.90602579 -140.6161375 384.4468255 C-140.41649395 385.65930964 -140.41649395 385.65930964 -140.21281719 386.89628839 C-136.30502921 409.09943054 -124.66459988 429.37342866 -106.3036375 442.8843255 C-105.14593394 443.64808827 -103.97862336 444.39742704 -102.8036375 445.1343255 C-102.1023875 445.60225519 -101.4011375 446.07018488 -100.6786375 446.55229425 C-89.53681356 453.68086253 -72.27001258 461.78511686 -58.8036375 461.1343255 C-58.8036375 461.4643255 -58.8036375 461.7943255 -58.8036375 462.1343255 C-47.55189422 463.9520918 -36.56398731 464.53611623 -25.1786375 464.5093255 C-24.34558086 464.50911402 -23.51252422 464.50890253 -22.65422344 464.50868464 C-9.70426875 464.47593099 2.69237127 463.79627219 15.1963625 460.1343255 C16.19047138 459.84549494 16.19047138 459.84549494 17.20466328 459.55082941 C40.64325825 452.46419183 60.36019354 438.73014254 72.1963625 417.1343255 C85.73324239 391.78867804 85.91418688 360.58944402 77.96296406 333.50395441 C72.66184601 317.11775956 60.87062376 303.02427902 46.5088625 293.6968255 C45.89720234 293.27079035 45.28554218 292.84475519 44.65534687 292.40580988 C29.43558911 282.44936892 10.13534636 277.43008852 -6.8036375 271.1343255 C-18.49697472 266.78822774 -30.18828359 262.43567009 -41.8036375 257.8843255 C-42.59802227 257.57938166 -43.39240704 257.27443781 -44.21086407 256.96025324 C-53.90068964 253.11855901 -62.18132085 248.07977042 -67.12785625 238.595263 C-70.76947446 229.72760322 -71.36226096 220.30497433 -67.8348875 211.2905755 C-62.57384411 200.29021204 -55.2951042 195.18179347 -44.06535625 190.89604425 C-38.08595909 188.88225764 -32.51571994 188.9506773 -26.2411375 188.9468255 C-24.66042461 188.92845636 -24.66042461 188.92845636 -23.04777813 188.90971613 C-22.03779766 188.90778254 -21.02781719 188.90584894 -19.98723125 188.90385675 C-19.06482647 188.89974787 -18.14242168 188.89563898 -17.19206524 188.89140558 C-14.8036375 189.1343255 -14.8036375 189.1343255 -11.8036375 191.1343255 C-10.25019049 191.74135631 -8.68641979 192.32227784 -7.1161375 192.8843255 C1.82229004 196.41025544 9.35483955 202.35912212 13.641675 211.0718255 C15.64477195 215.74190298 17.2522818 220.1402069 18.1963625 225.1343255 C25.74134483 225.15745402 33.2863235 225.17524319 40.83133316 225.18613768 C44.33445134 225.19136539 47.83754534 225.19846101 51.3406496 225.20976496 C55.3641709 225.22266756 59.38766664 225.22755462 63.41120625 225.23198175 C65.30648312 225.23972368 65.30648312 225.23972368 67.24004841 225.24762201 C68.40117649 225.24769754 69.56230457 225.24777308 70.75861835 225.24785089 C71.78676151 225.25007151 72.81490467 225.25229212 73.87420368 225.25458002 C76.15771359 225.39617159 76.15771359 225.39617159 77.1963625 224.1343255 C77.33429618 199.85799699 70.65405555 178.30381427 54.1963625 160.1343255 C42.29023437 148.68276321 28.79102159 142.68580692 13.1963625 138.1343255 C12.12901875 137.814638 11.061675 137.4949505 9.9619875 137.1655755 C-0.70198782 134.34441801 -11.83486632 133.82523875 -22.8036375 133.1343255 C-24.54967266 133.02217707 -24.54967266 133.02217707 -26.33098125 132.907763 C-56.83737531 132.00690305 -90.01502981 140.81796607 -111.8036375 163.1343255 Z M107.1963625 138.1343255 C107.1963625 244.0643255 107.1963625 349.9943255 107.1963625 459.1343255 C116.0030259 459.7214364 124.59917168 460.28394891 133.38825703 460.27958918 C134.40034733 460.28294779 135.41243763 460.2863064 136.45519733 460.28976679 C139.74653628 460.2991371 143.0378236 460.30121284 146.329175 460.30229425 C148.65639484 460.30551666 150.98361449 460.30888143 153.31083393 460.31238031 C158.17046801 460.31833699 163.0300844 460.32022381 167.88972187 460.31962824 C174.05838998 460.31952686 180.22694238 460.33317032 186.39558315 460.35040045 C191.19857503 460.3616236 196.00153986 460.3635443 200.8045435 460.36301851 C203.07588187 460.36418349 205.34722131 460.36851978 207.61854649 460.37635088 C218.66103369 460.4108603 229.6233278 460.28026266 240.62556171 459.26445246 C241.44708288 459.18949391 242.26860405 459.11453537 243.1150198 459.03730536 C264.01742073 456.86266002 285.23182537 448.95309151 301.1963625 435.1343255 C301.93628437 434.50139582 302.67620625 433.86846613 303.43855 433.21635675 C319.47604038 418.42745991 327.63397358 395.19009226 328.51276875 373.8218255 C329.06446075 351.58753762 326.30528328 331.12167257 312.1963625 313.1343255 C311.66269062 312.44725519 311.12901875 311.76018488 310.579175 311.05229425 C303.11162884 301.99476817 294.53510664 295.77891279 283.75105 291.32573175 C281.1963625 290.1343255 281.1963625 290.1343255 280.1963625 288.1343255 C281.0007375 287.9487005 281.8051125 287.7630755 282.6338625 287.5718255 C287.56625504 285.58156184 291.18016639 282.5758019 295.1963625 279.1343255 C296.22310078 278.2700091 296.22310078 278.2700091 297.27058125 277.38823175 C310.25809868 265.52340738 317.07925618 246.48285337 318.4175539 229.29326105 C319.44399613 203.79599931 314.89515659 181.82433053 297.1963625 162.5718255 C286.14978518 152.03509022 272.84694013 145.87201418 258.1963625 142.1343255 C257.53072285 141.96320246 256.8650832 141.79207941 256.17927265 141.61577082 C229.40238791 135.15628855 199.07390767 137.98988059 171.70686054 138.11845636 C150.20358025 138.21566154 128.69986249 138.1343255 107.1963625 138.1343255 Z " fill="#0669AC" transform="translate(421.80363750457764,203.86567449569702)"/>
<path d="M0 0 C7.68217413 -0.10245067 15.36416847 -0.17190095 23.046875 -0.21972656 C25.6537128 -0.23968999 28.26050671 -0.26687042 30.8671875 -0.30175781 C71.58391304 -0.83257402 71.58391304 -0.83257402 86.875 13.3125 C94.95212959 22.1239141 98.6349946 33.13159603 98.28515625 44.98046875 C97.49392586 53.35883989 94.96952689 60.2396526 90 67 C89.278125 68.03125 88.55625 69.0625 87.8125 70.125 C80.60712953 78.46686424 68.58713059 82.51803297 58 84 C53.36953564 84.25396464 48.75344159 84.23394073 44.1171875 84.1953125 C42.82177032 84.1924826 41.52635315 84.18965271 40.19168091 84.18673706 C36.78210435 84.17917608 33.3727038 84.15959446 29.9631958 84.1373291 C26.47027974 84.11670627 22.97733466 84.10770055 19.484375 84.09765625 C12.65617864 84.07633973 5.82809782 84.04229736 -1 84 C-1.02327088 74.67196409 -1.04098976 65.34393834 -1.05181217 56.01587963 C-1.05700894 51.68350886 -1.06404769 47.35115809 -1.07543945 43.01879883 C-1.08638311 38.83017597 -1.09230093 34.64157224 -1.09487724 30.45293617 C-1.09671096 28.86273205 -1.1002913 27.27252887 -1.10573006 25.68233299 C-1.1339759 17.07370167 -1.02030538 8.56308876 0 0 Z " fill="#0768AB" transform="translate(593,525)"/>
<path d="M0 0 C0.9092775 -0.00960754 1.81855499 -0.01921509 2.75538635 -0.02911377 C3.7499736 -0.03336365 4.74456085 -0.03761353 5.76928711 -0.04199219 C6.79533554 -0.04769226 7.82138397 -0.05339233 8.87852478 -0.05926514 C11.06516483 -0.06874271 13.25181935 -0.07525999 15.43847656 -0.07910156 C18.73065758 -0.08867534 22.02217829 -0.11961525 25.31420898 -0.15136719 C42.58594612 -0.23978163 58.77519253 -0.30340484 72.48413086 11.53613281 C73.22663086 12.40238281 73.96913086 13.26863281 74.73413086 14.16113281 C75.48823242 15.03898437 75.48823242 15.03898437 76.25756836 15.93457031 C83.53291823 24.91341673 84.76925601 33.7501103 83.73413086 45.16113281 C82.10755062 55.78319468 76.96403539 63.49845412 68.73413086 70.16113281 C57.80569896 77.44675408 45.55325168 79.64812364 32.62475586 79.45410156 C31.53193298 79.44985672 30.43911011 79.44561188 29.31317139 79.4412384 C25.86989237 79.4246305 22.42722883 79.38701283 18.98413086 79.34863281 C16.62997273 79.33356283 14.2758053 79.31987851 11.92163086 79.30761719 C6.19225909 79.27478596 0.46323897 79.22476926 -5.26586914 79.16113281 C-5.28899307 69.00847131 -5.30678448 58.85581602 -5.31768131 48.70313358 C-5.32291003 43.98933548 -5.33000748 39.27555534 -5.34130859 34.56176758 C-5.35213787 30.01657878 -5.35814606 25.47140729 -5.36074638 20.92620659 C-5.36260056 19.18818323 -5.36622103 17.45016087 -5.3715992 15.71214485 C-5.37881017 13.28634687 -5.37986006 10.86062135 -5.37939453 8.43481445 C-5.38298981 7.70905212 -5.38658508 6.98328979 -5.39028931 6.23553467 C-5.3773516 0.04576785 -5.3773516 0.04576785 0 0 Z " fill="#0669AC" transform="translate(597.265869140625,393.8388671875)"/>
<path d="M0 0 C7.72036995 14.90568007 4.15134814 38.37757976 4.14538372 54.63918471 C4.14517663 58.17443325 4.15072722 61.70967405 4.15544128 65.24491882 C4.16368178 72.14488596 4.16649307 79.04484455 4.16705366 85.9448162 C4.16753184 91.56201522 4.16960147 97.17921147 4.17275429 102.79640961 C4.18154163 118.78154177 4.1861765 134.76666728 4.18542381 150.75180188 C4.18538386 151.61020628 4.1853439 152.46861069 4.18530273 153.35302734 C4.18526185 154.2124998 4.18522097 155.07197226 4.18517885 155.95748934 C4.18477258 169.87935283 4.19434239 183.80118924 4.2084411 197.7230449 C4.22285987 212.07604689 4.22970832 226.42903572 4.22884732 240.78204513 C4.22851732 248.81688951 4.2311774 256.85170548 4.24202538 264.88654327 C4.25120304 271.72703073 4.25324667 278.56747689 4.24651595 285.4079679 C4.24328738 288.88633591 4.24305839 292.36462502 4.2518692 295.84298515 C4.31183692 324.88039795 2.41219207 352.3806167 -7 380 C-7.66 380 -8.32 380 -9 380 C-7.95175653 374.13811217 -6.59523914 368.42559899 -5 362.6875 C0.97633389 340.76146473 0.14714676 318.08118505 0.11606562 295.55041277 C0.11170166 291.57453271 0.11321172 287.59865401 0.1139679 283.62277222 C0.1144894 276.75314885 0.11138186 269.88353507 0.10573006 263.01391411 C0.09756411 253.08189133 0.09499464 243.14987313 0.09374207 233.21784735 C0.09155951 217.09941189 0.08492112 200.98098153 0.07543945 184.86254883 C0.06624466 169.21541367 0.05917396 153.5682799 0.05493164 137.92114258 C0.05466892 136.95483531 0.05440619 135.98852805 0.05413551 134.99293875 C0.05283037 130.14471639 0.05156668 125.29649401 0.05032361 120.44827163 C0.03997582 80.29884419 0.02237929 40.14942243 0 0 Z " fill="#135E94" transform="translate(831,340)"/>
<path d="M0 0 C1.04843517 0.07035192 2.09687034 0.14070384 3.17707628 0.21318763 C12.92750456 0.84267065 22.6346549 1.15159409 32.40760803 1.15821838 C33.87421102 1.16280135 35.34081275 1.1678038 36.80741304 1.17318195 C40.78235532 1.18657541 44.75728921 1.19412579 48.73224795 1.20060861 C53.03942938 1.20869669 57.34659378 1.22236477 61.65376282 1.23532104 C69.09796165 1.25696596 76.5421623 1.27515354 83.98637581 1.29092598 C94.74917519 1.31373479 105.51195564 1.34186168 116.27473884 1.37124526 C133.74084939 1.41878709 151.20696774 1.46208715 168.6730957 1.50268555 C185.62980759 1.54210902 202.58651258 1.58355141 219.54321289 1.62768555 C221.11364711 1.63177196 221.11364711 1.63177196 222.71580727 1.63594092 C227.96859965 1.64962152 233.22139193 1.66334157 238.47418416 1.67708123 C281.98277501 1.79083509 325.49138083 1.89769057 369 2 C369 2.33 369 2.66 369 3 C359.96107351 4.64517953 351.26566613 5.28731292 342.08789062 5.25396729 C340.73457644 5.25627787 339.38126351 5.25945838 338.02795315 5.26342177 C334.34671493 5.2716972 330.66558167 5.26767781 326.98434329 5.26144934 C322.99912257 5.25689549 319.01391901 5.26392329 315.02870178 5.26940918 C307.23421342 5.27827566 299.4397637 5.27639287 291.64527386 5.2705839 C285.30232089 5.26605398 278.95937869 5.26546025 272.61642456 5.26763153 C271.25852061 5.26809123 271.25852061 5.26809123 269.87318426 5.26856022 C268.03363156 5.26919972 266.19407886 5.26984815 264.35452616 5.2705054 C247.12511058 5.27620133 229.89571632 5.26966373 212.66630423 5.25890467 C197.92221946 5.24998196 183.17816622 5.25151206 168.43408203 5.26074219 C151.27571151 5.27147883 134.11735969 5.27563936 116.95898628 5.26951766 C115.12402471 5.26888063 113.28906314 5.26825189 111.45410156 5.26763153 C110.55149908 5.26732298 109.6488966 5.26701443 108.71894252 5.26669653 C102.39677087 5.26497883 96.0746112 5.26786485 89.75244141 5.27259064 C82.02827791 5.27823785 74.30415498 5.27660369 66.57999605 5.26602915 C62.64826411 5.26082171 58.71659947 5.25862983 54.78486824 5.26532745 C11.39087348 5.33280191 11.39087348 5.33280191 0 1 C0 0.67 0 0.34 0 0 Z " fill="#145A91" transform="translate(319,815)"/>
<path d="M0 0 C0.33 0 0.66 0 1 0 C1.33 105.93 1.66 211.86 2 321 C2.33 321 2.66 321 3 321 C3.0626001 322.08075806 3.0626001 322.08075806 3.12646484 323.18334961 C3.65517247 330.83482121 4.92448697 338.0923892 6.625 345.5625 C7.10355145 347.66634456 7.5752511 349.77176307 8.0390625 351.87890625 C8.35157959 353.24897827 8.35157959 353.24897827 8.67041016 354.64672852 C9 357 9 357 8 360 C5.3748721 354.46473032 4.00743414 349.1314307 2.875 343.125 C2.70613281 342.27808594 2.53726563 341.43117188 2.36328125 340.55859375 C0.44073653 330.67338348 -0.23556807 320.90311666 -0.5625 310.84375 C-0.6049585 309.54659058 -0.64741699 308.24943115 -0.69116211 306.91296387 C-1.2361401 288.94856965 -1.06437277 270.97559299 -0.98962402 253.0055542 C-0.96942113 248.03576434 -0.9539979 243.06599743 -0.94406128 238.09617615 C-0.93787278 235.85382535 -0.92539684 233.61158202 -0.91235352 231.3692627 C-0.88415926 223.23404778 -1.05268896 215.1247242 -1.3668766 206.99518204 C-2.09079342 188.12971139 -2.06535595 169.30095672 -1.93239641 150.42493343 C-1.90105224 145.82507961 -1.87586312 141.22519085 -1.84970093 136.62530518 C-1.80496472 128.92383878 -1.75553973 121.22241383 -1.703125 113.52099609 C-1.64293829 104.66960225 -1.59018223 95.81818744 -1.54135668 86.96672416 C-1.49374271 78.36391978 -1.44102884 69.76115376 -1.38599777 61.15839386 C-1.3628865 57.53370141 -1.34146719 53.90900517 -1.32149124 50.28429413 C-1.29770751 46.01248884 -1.26938661 41.74073529 -1.23780251 37.46898079 C-1.22701897 35.91879561 -1.21767983 34.36859947 -1.21003914 32.81839561 C-1.15463591 21.85172284 -0.6919609 10.94481947 0 0 Z " fill="#1E699A" transform="translate(190,351)"/>
<path d="M0 0 C0.33 0 0.66 0 1 0 C2.10337705 202.59110387 2.10337705 202.59110387 2.12338257 270.00125885 C2.12500085 273.56437961 2.12855001 277.127494 2.13256836 280.69061279 C2.13827265 286.12895917 2.13876895 291.56727738 2.13431931 297.00562477 C2.13333144 298.93032631 2.13388937 300.85502939 2.13615799 302.77972984 C2.13866896 305.33048023 2.13498659 307.88114121 2.12939453 310.43188477 C2.13142128 311.1670677 2.13344803 311.90225063 2.13553619 312.65971184 C2.12260431 315.72068291 1.97633694 318.07098919 1 321 C8.26 321 15.52 321 23 321 C22.67 321.66 22.34 322.32 22 323 C19.77090129 323.02714735 17.54170633 323.04646254 15.3125 323.0625 C14.07113281 323.07410156 12.82976563 323.08570313 11.55078125 323.09765625 C8.53764546 323.01478673 5.91724661 322.70839449 3 322 C3 322.66 3 323.32 3 324 C1.68 323.67 0.36 323.34 -1 323 C-0.67 216.41 -0.34 109.82 0 0 Z " fill="#186EA7" transform="translate(528,342)"/>
<path d="M0 0 C0.85049423 0.00222061 1.70098846 0.00444122 2.57725525 0.00672913 C4.01863609 0.00684242 4.01863609 0.00684242 5.48913574 0.00695801 C7.05630592 0.01469994 7.05630592 0.01469994 8.65513611 0.02259827 C9.71913132 0.02401321 10.78312653 0.02542816 11.87936401 0.02688599 C15.29293069 0.03250388 18.70643286 0.04505941 22.11997986 0.05775452 C24.42792162 0.06276721 26.73586441 0.06733052 29.04380798 0.07142639 C34.71505412 0.08247912 40.38626238 0.09923465 46.05747986 0.12025452 C46.55247986 1.60525452 46.55247986 1.60525452 47.05747986 3.12025452 C31.54747986 3.12025452 16.03747986 3.12025452 0.05747986 3.12025452 C0.05747986 27.54025452 0.05747986 51.96025452 0.05747986 77.12025452 C17.21747986 76.79025452 34.37747986 76.46025452 52.05747986 76.12025452 C52.05747986 76.78025452 52.05747986 77.44025452 52.05747986 78.12025452 C48.60819627 78.9009868 45.43373098 79.24272604 41.90000916 79.23377991 C40.89934921 79.23370438 39.89868927 79.23362885 38.8677063 79.23355103 C37.79982376 79.22838974 36.73194122 79.22322845 35.63169861 79.21791077 C34.5289711 79.21649582 33.42624359 79.21508087 32.2901001 79.21362305 C28.77503219 79.20803456 25.26002845 79.19548411 21.74497986 79.18275452 C19.35891307 79.17773803 16.97284528 79.17317538 14.58677673 79.16908264 C8.74365596 79.15806889 2.90057249 79.14134215 -2.94252014 79.12025452 C-2.96564407 68.96759301 -2.98343548 58.81493772 -2.99433231 48.66225529 C-2.99956103 43.94845719 -3.00665848 39.23467704 -3.01795959 34.52088928 C-3.02878887 29.97570048 -3.03479706 25.430529 -3.03739738 20.88532829 C-3.03925156 19.14730494 -3.04287203 17.40928258 -3.0482502 15.67126656 C-3.05546117 13.24546857 -3.05651106 10.81974306 -3.05604553 8.39393616 C-3.05964081 7.66817383 -3.06323608 6.9424115 -3.06694031 6.19465637 C-3.05438761 0.18908628 -3.05438761 0.18908628 0 0 Z " fill="#0D5690" transform="translate(594.9425201416016,393.87974548339844)"/>
<path d="M0 0 C1.216875 0.020625 2.43375 0.04125 3.6875 0.0625 C0.26088971 2.34690686 -2.28200973 2.83624627 -6.3125 3.625 C-7.55 3.87378906 -8.7875 4.12257813 -10.0625 4.37890625 C-19.34278382 5.98897 -28.638695 6.20594275 -38.03588867 6.17602539 C-39.86709259 6.17624443 -39.86709259 6.17624443 -41.73529053 6.1764679 C-45.04654216 6.17589517 -48.35772958 6.17091854 -51.66896987 6.16389394 C-55.14294348 6.1575953 -58.61691817 6.15705149 -62.09089661 6.15586853 C-68.65311711 6.15277426 -75.21532073 6.14458681 -81.77753383 6.13451904 C-89.25527428 6.12329842 -96.73301559 6.11783253 -104.21076238 6.11282361 C-119.57801799 6.10240238 -134.94525681 6.08484022 -150.3125 6.0625 C-150.3125 5.4025 -150.3125 4.7425 -150.3125 4.0625 C-148.34216797 4.07990234 -148.34216797 4.07990234 -146.33203125 4.09765625 C-144.59635559 4.10703828 -142.86067839 4.11613804 -141.125 4.125 C-139.82852539 4.13756836 -139.82852539 4.13756836 -138.50585938 4.15039062 C-137.24418945 4.15522461 -137.24418945 4.15522461 -135.95703125 4.16015625 C-134.80231323 4.16801147 -134.80231323 4.16801147 -133.62426758 4.17602539 C-131.33144606 4.13555483 -131.33144606 4.13555483 -129.23344421 3.56051636 C-125.22735819 2.87748504 -121.32171394 2.94843786 -117.265625 2.98071289 C-116.36228424 2.98377945 -115.45894348 2.98684601 -114.52822876 2.99000549 C-112.56778068 2.99715094 -110.60733978 3.00653592 -108.64691162 3.01790047 C-105.52388024 3.03537231 -102.40090074 3.04561911 -99.27783203 3.05381775 C-90.39773643 3.07817476 -81.51770943 3.11332557 -72.63769531 3.15844727 C-67.198369 3.18557574 -61.75908394 3.20239582 -56.31970215 3.21331596 C-54.26605725 3.21943997 -52.21241937 3.22933301 -50.15881348 3.24339485 C-33.39072209 3.35701853 -16.51609539 -0.27993382 0 0 Z " fill="#07538F" transform="translate(681.3125,659.9375)"/>
<path d="M0 0 C1.80868813 0.00333092 1.80868813 0.00333092 3.65391541 0.00672913 C4.64899864 0.00651009 4.64899864 0.00651009 5.66418457 0.00628662 C7.86644207 0.00698571 10.06861596 0.01477787 12.27085876 0.02259827 C13.79400588 0.02446246 15.31715359 0.02588636 16.84030151 0.02688599 C20.85657903 0.03071105 24.87282059 0.04054124 28.88908386 0.05158997 C32.98443617 0.06180433 37.07979427 0.06638366 41.17515564 0.07142639 C49.21618779 0.08216352 57.25719069 0.0992398 65.29820251 0.12025452 C65.29820251 0.78025452 65.29820251 1.44025452 65.29820251 2.12025452 C43.18820251 2.12025452 21.07820251 2.12025452 -1.70179749 2.12025452 C-1.04179749 9.38025452 -0.38179749 16.64025452 0.29820251 24.12025452 C0.29820251 27.09025452 0.29820251 30.06025452 0.29820251 33.12025452 C-4.88736382 27.93468818 -3.88059592 14.90403644 -3.88929749 7.74525452 C-3.85009515 0.17136419 -3.85009515 0.17136419 0 0 Z " fill="#054A84" transform="translate(281.70179748535156,563.8797454833984)"/>
<path d="M0 0 C0.70607895 0.05731293 1.4121579 0.11462585 2.13963318 0.17367554 C29.84371383 2.32937581 57.55629033 2.4299284 85.33062744 2.60089111 C91.62736876 2.64156973 97.92402871 2.69236318 104.22070312 2.7421875 C116.48041077 2.83776455 128.74016546 2.92252915 141 3 C141 3.33 141 3.66 141 4 C124.64851457 4.04684868 108.29705113 4.08205163 91.94551468 4.10362434 C84.35216266 4.11390991 76.75885249 4.12791784 69.16552734 4.15087891 C62.54243367 4.17089649 55.91937033 4.18373617 49.29624724 4.18817699 C45.79367423 4.19077029 42.29118794 4.19680804 38.78864288 4.21146011 C34.86591543 4.22773479 30.9432706 4.22797436 27.02050781 4.22705078 C25.30390709 4.23783661 25.30390709 4.23783661 23.55262756 4.24884033 C4.1998056 4.1998056 4.1998056 4.1998056 0 0 Z " fill="#0D4376" transform="translate(319,815)"/>
<path d="M0 0 C3.85870232 0.57526525 5.89498568 2.35772398 8.75 4.9375 C9.54921875 5.64777344 10.3484375 6.35804688 11.171875 7.08984375 C13 9 13 9 13 11 C13.99 11.33 14.98 11.66 16 12 C17.81300379 14.00322058 19.47794644 15.99188847 21.125 18.125 C21.61000977 18.75027588 22.09501953 19.37555176 22.59472656 20.01977539 C31.8137375 32.14123525 45.72582506 51.39476113 45 67 C42.57517459 64.57517459 42.02145726 62.60592499 40.875 59.375 C33.37389035 39.53970423 21.29922878 17.91293144 4 5 C4 4.34 4 3.68 4 3 C2.68 2.34 1.36 1.68 0 1 C0 0.67 0 0.34 0 0 Z " fill="#0F588F" transform="translate(780,244)"/>
<path d="M0 0 C-1.79725024 1.19816682 -3.62047899 2.36040381 -5.48828125 3.4453125 C-14.48699246 8.79724309 -19.89900083 14.12482363 -22.52734375 24.43359375 C-24.09821499 32.96303512 -22.97363672 40.24967066 -19 48 C-16.89079714 50.92156406 -14.56268475 53.47299068 -12 56 C-11.195625 56.825 -10.39125 57.65 -9.5625 58.5 C-9.046875 58.995 -8.53125 59.49 -8 60 C-12.78471699 59.85500858 -15.16208011 57.47637167 -18.2890625 54.171875 C-25.11644992 45.50514576 -26.73449319 36.77256678 -26 26 C-24.21566194 16.44320632 -18.79332495 8.73384951 -10.9296875 3.19140625 C-7.06955893 0.80812849 -4.6044261 -0.25580145 0 0 Z " fill="#105B94" transform="translate(377,396)"/>
<path d="M0 0 C3.39975709 3.0590407 5.27245859 6.11228602 7.3125 10.1875 C17.28156947 29.14994277 32.19585462 38.96851996 51 48 C51 48.66 51 49.32 51 50 C35.88487278 47.58596879 21.59977505 35.34518869 12 24 C0 6.76816609 0 6.76816609 0 0 Z " fill="#0D5891" transform="translate(292,465)"/>
<path d="M0 0 C2.98597272 2.79165779 5.09730226 5.55819317 7.1875 9.0625 C10.97697128 15.14837465 15.35740772 20.55036211 20 26 C20.57492188 26.71027344 21.14984375 27.42054688 21.7421875 28.15234375 C28.29168725 36.06501689 36.57978376 42.19940659 45 48 C43.234375 48.64453125 43.234375 48.64453125 41 49 C39.078125 48.07421875 39.078125 48.07421875 37.25 46.6875 C36.32960938 46.01267578 36.32960938 46.01267578 35.390625 45.32421875 C34.93171875 44.88722656 34.4728125 44.45023438 34 44 C34 43.34 34 42.68 34 42 C33.40832031 41.72414063 32.81664062 41.44828125 32.20703125 41.1640625 C19.03991201 34.21928103 6.29832247 16.26232131 0 3 C0 2.01 0 1.02 0 0 Z " fill="#0F558B" transform="translate(211,741)"/>
<path d="M0 0 C3.5918441 3.24521335 4.59180859 6.73950473 6.0625 11.25 C6.32562988 12.05630859 6.58875977 12.86261719 6.85986328 13.69335938 C11.58663985 28.77388599 12.56884221 45.38143937 10 61 C9.67 61 9.34 61 9 61 C8.96559814 60.14059814 8.93119629 59.28119629 8.89575195 58.39575195 C8.62813012 31.38953114 8.62813012 31.38953114 0.92382812 6.00878906 C0 4 0 4 0 0 Z " fill="#0B558F" transform="translate(496,527)"/>
<path d="M0 0 C16.80640309 5.14585193 29.75520038 16.65673784 38.73046875 31.5625 C40.01109966 34.02131136 41.15262699 36.3579344 42 39 C41.67 39.99 41.34 40.98 41 42 C41 41.34 41 40.68 41 40 C40.34 40 39.68 40 39 40 C38.72027344 39.38253906 38.44054687 38.76507813 38.15234375 38.12890625 C35.12521382 31.7339726 31.60619636 26.36213668 27 21 C26.52433594 20.41734375 26.04867187 19.8346875 25.55859375 19.234375 C19.45869347 12.41777626 9.69949966 5.89983322 1 3 C0.67 2.01 0.34 1.02 0 0 Z " fill="#0F5A94" transform="translate(694,349)"/>
<path d="M0 0 C2.64 0 5.28 0 8 0 C8 0.66 8 1.32 8 2 C8.81247192 2.24435791 8.81247192 2.24435791 9.64135742 2.49365234 C15.52033671 4.34592485 20.87588833 6.7332686 26.3125 9.625 C27.54492432 10.27770874 27.54492432 10.27770874 28.80224609 10.94360352 C46.91959922 20.75879767 46.91959922 20.75879767 49 27 C45.73444001 25.530498 42.86801419 23.59682512 39.9230957 21.57202148 C27.77911461 13.06394831 27.77911461 13.06394831 14 8 C14 7.34 14 6.68 14 6 C13.40832031 5.80664062 12.81664062 5.61328125 12.20703125 5.4140625 C8.0853355 4.05585281 4.0049476 2.67949415 0 1 C0 0.67 0 0.34 0 0 Z " fill="#0F5A93" transform="translate(730,216)"/>
<path d="M0 0 C1.8253125 0.0309375 1.8253125 0.0309375 3.6875 0.0625 C-10.66772831 9.6326522 -36.965759 6.79624526 -53.3125 5.0625 C-52.9825 4.4025 -52.6525 3.7425 -52.3125 3.0625 C-51.75602783 3.07297363 -51.19955566 3.08344727 -50.6262207 3.09423828 C-33.65375996 3.36840747 -16.70312174 -0.28310376 0 0 Z " fill="#0E5C96" transform="translate(681.3125,659.9375)"/>
<path d="M0 0 C2.3125 0.1875 2.3125 0.1875 4 1 C3.05125 1.7425 2.1025 2.485 1.125 3.25 C-1.40156477 5.3466365 -2.60413972 7.02216474 -4 10 C-5.66666667 11.66666667 -7.33333333 13.33333333 -9 15 C-16.55420361 23.79540421 -22.00734466 34.59863472 -27 45 C-27.33 45 -27.66 45 -28 45 C-27.51961519 39.50383266 -26.02968314 35.41324008 -23.25 30.625 C-22.86166992 29.94526123 -22.47333984 29.26552246 -22.07324219 28.56518555 C-16.10767094 18.44196695 -8.83689591 7.84140503 0 0 Z " fill="#0F568D" transform="translate(232,253)"/>
<path d="M0 0 C0.495 0.99 0.495 0.99 1 2 C-6.47733314 18.52333757 -20.3706193 30.47689579 -36 39 C-36.66 39 -37.32 39 -38 39 C-38 38.34 -38 37.68 -38 37 C-35.9453125 35.5546875 -35.9453125 35.5546875 -33.125 33.875 C-20.17725783 25.83044646 -10.745959 16.85302217 -3.4453125 3.40625 C-2 1 -2 1 0 0 Z " fill="#0E5890" transform="translate(496,618)"/>
<path d="M0 0 C0.99 0.66 1.98 1.32 3 2 C4.05682103 7.84432892 2.75094771 14.42665718 1.875 20.25 C1.74883301 21.0968335 1.62266602 21.94366699 1.49267578 22.81616211 C-0.27998623 33.79519759 -3.48745397 44.4623619 -7 55 C-7.66 55 -8.32 55 -9 55 C-7.95175653 49.13811217 -6.59523914 43.42559899 -5 37.6875 C-1.60015457 25.21411211 -0.58494854 12.85347453 0 0 Z " fill="#0F548B" transform="translate(831,665)"/>
<path d="M0 0 C0.66 0 1.32 0 2 0 C2.31710937 0.84820313 2.63421875 1.69640625 2.9609375 2.5703125 C8.21696988 15.78299058 15.64007706 26.33361288 26.06640625 36.01171875 C28 38 28 38 29 41 C18.15750705 36.45070226 10.4604393 23.90968614 5 14 C5 13.34 5 12.68 5 12 C4.34 12 3.68 12 3 12 C2.49166409 10.75336669 1.99368855 9.50250613 1.5 8.25 C1.2215625 7.55390625 0.943125 6.8578125 0.65625 6.140625 C0 4 0 4 0 0 Z " fill="#0E5890" transform="translate(284,605)"/>
<path d="M0 0 C-0.66 0 -1.32 0 -2 0 C-2 0.66 -2 1.32 -2 2 C-10.88523718 4.47580159 -19.7420542 6.4247377 -28.875 7.75 C-29.72924561 7.87737549 -30.58349121 8.00475098 -31.46362305 8.13598633 C-37.33771083 8.94532525 -43.0744473 9.14217535 -49 9 C-49 8.67 -49 8.34 -49 8 C-47.35 7.67 -45.7 7.34 -44 7 C-44 6.67 -44 6.34 -44 6 C-42.45119141 5.87044922 -42.45119141 5.87044922 -40.87109375 5.73828125 C-30.54994643 4.7771446 -20.61642296 2.9957386 -10.53100586 0.58911133 C-9.12540405 0.26076294 -9.12540405 0.26076294 -7.69140625 -0.07421875 C-6.85810791 -0.27619873 -6.02480957 -0.47817871 -5.16625977 -0.6862793 C-3 -1 -3 -1 0 0 Z " fill="#156197" transform="translate(729,810)"/>
<path d="M0 0 C0.66 0.33 1.32 0.66 2 1 C-7.13711324 10.41698879 -24.81167681 25.50274119 -38.8125 26.125 C-39.534375 26.08375 -40.25625 26.0425 -41 26 C-37.47603283 23.07988398 -33.5347978 21.21547212 -29.4375 19.25 C-18.67286397 13.96142514 -9.2150247 7.69584492 0 0 Z " fill="#10568C" transform="translate(779,780)"/>
<path d="M0 0 C1.35117416 0.0001133 1.35117416 0.0001133 2.72964478 0.00022888 C3.70364227 0.00539017 4.67763977 0.01055145 5.68115234 0.01586914 C6.67714447 0.01728409 7.6731366 0.01869904 8.6993103 0.02015686 C11.88860037 0.02576603 15.0778209 0.03832009 18.26708984 0.05102539 C20.425943 0.05603921 22.58479725 0.06060232 24.74365234 0.06469727 C30.04315534 0.07573844 35.34261763 0.09248552 40.64208984 0.11352539 C41.13708984 1.59852539 41.13708984 1.59852539 41.64208984 3.11352539 C25.80208984 3.11352539 9.96208984 3.11352539 -6.35791016 3.11352539 C-6.35791016 2.45352539 -6.35791016 1.79352539 -6.35791016 1.11352539 C-4.00590956 -0.06247491 -2.62056615 -0.00732002 0 0 Z " fill="#064B85" transform="translate(600.35791015625,393.886474609375)"/>
<path d="M0 0 C14.33607508 0.97745966 29.64840885 10.41438283 40 20 C41.58390301 21.94875872 42.76659776 23.80132645 44 26 C40.47302863 24.45695003 37.90275666 22.32217503 35 19.8125 C26.04501143 12.42315181 16.92131055 7.61945618 5.93359375 4.140625 C3.17446225 3.06783353 1.83127017 2.26790754 0 0 Z " fill="#0D5890" transform="translate(436,341)"/>
<path d="M0 0 C3.31010961 2.67773046 4.55724231 6.20888633 6.0625 10.0625 C6.31837891 10.68060547 6.57425781 11.29871094 6.83789062 11.93554688 C10.98027398 22.36072245 11.2647756 32.53525629 11.125 43.625 C11.11494398 45.02473314 11.10582279 46.42447331 11.09765625 47.82421875 C11.07426238 51.21632925 11.04148173 54.6080706 11 58 C10.67 58 10.34 58 10 58 C9.98018066 57.24904053 9.96036133 56.49808105 9.93994141 55.72436523 C9.84420599 52.29508043 9.73472367 48.86636458 9.625 45.4375 C9.5940625 44.25607422 9.563125 43.07464844 9.53125 41.85742188 C9.33120435 35.90606379 8.96187867 30.67315817 7 25 C6.02484473 21.24150681 5.05768632 17.48113505 4.09765625 13.71875 C3.30774181 11.0425986 2.4971478 8.73666769 1.37109375 6.21875 C0 3 0 3 0 0 Z " fill="#09477D" transform="translate(741,526)"/>
<path d="M0 0 C4.72148865 0.6994798 7.53719288 3.25645211 10.546875 6.84375 C16.99537338 15.65456957 18.55772604 24.7732165 17.6171875 35.50390625 C16.92677713 38.29613553 16.06526546 39.10068721 14 41 C14.02094727 40.44650879 14.04189453 39.89301758 14.06347656 39.32275391 C14.6839387 20.89702922 14.6839387 20.89702922 5.4609375 5.47265625 C4.97882813 4.98667969 4.49671875 4.50070312 4 4 C2.824375 2.7934375 2.824375 2.7934375 1.625 1.5625 C1.08875 1.046875 0.5525 0.53125 0 0 Z " fill="#0E5A92" transform="translate(424,548)"/>
<path d="M0 0 C0.33 0 0.66 0 1 0 C1.33 3.96 1.66 7.92 2 12 C2.33 12 2.66 12 3 12 C3.0417334 12.72050537 3.0834668 13.44101074 3.12646484 14.18334961 C3.65517247 21.83482121 4.92448697 29.0923892 6.625 36.5625 C7.10355145 38.66634456 7.5752511 40.77176307 8.0390625 42.87890625 C8.24740723 43.7922876 8.45575195 44.70566895 8.67041016 45.64672852 C9 48 9 48 8 51 C5.3748721 45.46473032 4.00743414 40.1314307 2.875 34.125 C2.70613281 33.27808594 2.53726563 32.43117188 2.36328125 31.55859375 C0.7616639 23.3235061 -0.13808479 15.32741198 -0.0625 6.9375 C-0.05347656 5.62652344 -0.04445312 4.31554687 -0.03515625 2.96484375 C-0.02355469 1.98644531 -0.01195312 1.00804687 0 0 Z " fill="#19669B" transform="translate(190,660)"/>
<path d="M0 0 C5.39588772 0.56835748 9.9176246 1.91890015 14.9375 3.9375 C21.74259198 6.65029612 28.54893735 9.35784571 36 9.125 C37.1446875 9.09792969 37.1446875 9.09792969 38.3125 9.0703125 C38.869375 9.04710937 39.42625 9.02390625 40 9 C39.01 9.66 38.02 10.32 37 11 C37.99 11.66 38.98 12.32 40 13 C29.10277447 12.31449124 19.51949412 9.30748095 9.375 5.4375 C8.16457031 4.97996338 8.16457031 4.97996338 6.9296875 4.51318359 C1.12080014 2.24160029 1.12080014 2.24160029 0 0 Z " fill="#0F5C96" transform="translate(327,655)"/>
<path d="M0 0 C5.16064403 0.01770375 10.10706672 0.38986311 15.21484375 1.1328125 C15.21484375 1.4628125 15.21484375 1.7928125 15.21484375 2.1328125 C9.93484375 2.1328125 4.65484375 2.1328125 -0.78515625 2.1328125 C-0.64078125 3.61652344 -0.49640625 5.10023438 -0.34765625 6.62890625 C-0.15993607 8.60935414 0.02755156 10.58982409 0.21484375 12.5703125 C0.35792969 14.03114258 0.35792969 14.03114258 0.50390625 15.52148438 C1.05658473 21.42330099 1.31291934 27.20536928 1.21484375 33.1328125 C-3.97072259 27.94724616 -2.96395468 14.91659442 -2.97265625 7.7578125 C-2.93363164 0.21825706 -2.93363164 0.21825706 0 0 Z " fill="#074C85" transform="translate(280.78515625,563.8671875)"/>
<path d="M0 0 C0.8696144 2.43256533 1.09556851 3.69087462 0.32250977 6.19140625 C-0.05075439 6.97386719 -0.42401855 7.75632812 -0.80859375 8.5625 C-1.22254395 9.43688721 -1.63649414 10.31127441 -2.06298828 11.2121582 C-2.51657715 12.132146 -2.97016602 13.05213379 -3.4375 14 C-3.89108887 14.93739014 -4.34467773 15.87478027 -4.81201172 16.84057617 C-8.33531783 23.98152964 -12.25158078 30.59361317 -17 37 C-17.99 36.67 -18.98 36.34 -20 36 C-19.57847656 35.39671875 -19.15695312 34.7934375 -18.72265625 34.171875 C-18.17480469 33.37265625 -17.62695312 32.5734375 -17.0625 31.75 C-16.51722656 30.96109375 -15.97195313 30.1721875 -15.41015625 29.359375 C-13.91752922 27.14825666 -13.91752922 27.14825666 -13.55859375 24.953125 C-13 23 -13 23 -11.19921875 21.32421875 C-8.01198133 17.95582396 -6.5884293 14.05407222 -4.8125 9.8125 C-4.11250244 8.17239682 -3.41077192 6.53303182 -2.70703125 4.89453125 C-2.4025708 4.17112549 -2.09811035 3.44771973 -1.78442383 2.70239258 C-1 1 -1 1 0 0 Z " fill="#0F558B" transform="translate(821,721)"/>
<path d="M0 0 C3 4 3 4 2 19 C-17.8 19 -37.6 19 -58 19 C-58 18.67 -58 18.34 -58 18 C-29.29 17.505 -29.29 17.505 0 17 C0 11.39 0 5.78 0 0 Z " fill="#1972AC" transform="translate(498,411)"/>
<path d="M0 0 C11.83475759 2.2069478 21.47369754 13.21405884 28.0625 22.5625 C29.05113071 24.035358 30.03401257 25.512193 31 27 C30.67 27.66 30.34 28.32 30 29 C27.32606005 26.42445178 25.05172336 23.81506564 22.875 20.8125 C16.61025812 12.68707624 9.25070292 6.44659392 0 2 C0 1.34 0 0.68 0 0 Z " fill="#0C558E" transform="translate(710,496)"/>
<path d="M0 0 C1.22203125 0.42023437 2.4440625 0.84046875 3.703125 1.2734375 C9.66241607 3.25909009 15.69927959 4.94305652 21.75 6.625 C22.85988281 6.93695312 23.96976562 7.24890625 25.11328125 7.5703125 C29.72656005 8.85825556 34.29055021 10.11229334 39 11 C39 11.33 39 11.66 39 12 C31.73911746 12.39198313 25.76380745 11.43940537 18.875 9.1875 C18.03324219 8.92646484 17.19148438 8.66542969 16.32421875 8.39648438 C13.87216494 7.62665353 11.43555229 6.82038071 9 6 C8.22043945 5.74814941 7.44087891 5.49629883 6.63769531 5.23681641 C4.72439808 4.58356815 2.85598051 3.80173308 1 3 C0.67 2.01 0.34 1.02 0 0 Z " fill="#125B92" transform="translate(279,803)"/>
<path d="M0 0 C-0.47719482 0.28085449 -0.95438965 0.56170898 -1.44604492 0.85107422 C-10.93251867 6.46349658 -19.97038679 12.19790384 -28.49609375 19.19921875 C-31 21 -31 21 -34 21 C-28.96284666 14.53426174 -22.83345602 10.393209 -16 6 C-15.15501953 5.45400146 -15.15501953 5.45400146 -14.29296875 4.89697266 C-4.45990044 -1.38110755 -4.45990044 -1.38110755 0 0 Z " fill="#0E5890" transform="translate(275,225)"/>
<path d="M0 0 C1.07958984 0.00064453 2.15917969 0.00128906 3.27148438 0.00195312 C8.67704171 0.03178146 13.86321484 0.23809109 19.1875 1.1875 C19.1875 1.5175 19.1875 1.8475 19.1875 2.1875 C4.51417837 2.828584 -10.12406385 3.35829577 -24.8125 3.1875 C-24.8125 2.8575 -24.8125 2.5275 -24.8125 2.1875 C-16.46629376 0.53362619 -8.49921156 -0.09816719 0 0 Z " fill="#094F88" transform="translate(392.8125,334.8125)"/>
<path d="M0 0 C0.75 1.625 0.75 1.625 1 4 C-2.96253069 11.92506138 -10.64002522 18.12266857 -18.78125 21.390625 C-22.29636249 22.35604322 -25.37529323 22.26361504 -29 22 C-25.94663793 19.96442529 -23.3374021 19.04550473 -19.875 17.875 C-10.57803082 14.35106519 -4.29841053 8.97059589 0 0 Z " fill="#0E578F" transform="translate(437,590)"/>
<path d="M0 0 C0.33 0 0.66 0 1 0 C1.3935594 6.5593233 -0.01094615 10.39108322 -3.98046875 15.59765625 C-14.68291884 27.55030405 -14.68291884 27.55030405 -22 28.3125 C-22.66 28.209375 -23.32 28.10625 -24 28 C-22.32932325 24.65864649 -18.73316496 23.84530557 -15.4453125 22.31640625 C-13.14854448 21.07996723 -11.79430685 19.84265643 -10 18 C-9.34 18 -8.68 18 -8 18 C-7.566875 17.12988281 -7.566875 17.12988281 -7.125 16.2421875 C-6.42512047 14.84728871 -5.71805844 13.4559409 -5 12.0703125 C-2.96918416 8.11974106 -1.28146789 4.27155965 0 0 Z " fill="#0C548D" transform="translate(678,440)"/>
<path d="M0 0 C1.34336235 4.03008705 0.01753366 6.74673835 -1.25 10.625 C-3.9651787 19.31262744 -5.61691551 28.01557312 -7 37 C-7.33 37 -7.66 37 -8 37 C-8.89410142 28.22456012 -7.44631378 20.74354456 -5.125 12.3125 C-4.85606934 11.33200684 -4.58713867 10.35151367 -4.31005859 9.34130859 C-2.28001347 2.28001347 -2.28001347 2.28001347 0 0 Z " fill="#0E5388" transform="translate(201,304)"/>
<path d="M0 0 C16.335 0.99 16.335 0.99 33 2 C33 2.66 33 3.32 33 4 C10.25881425 4.42818132 10.25881425 4.42818132 2 2 C1.34 1.34 0.68 0.68 0 0 Z " fill="#105489" transform="translate(319,815)"/>
<path d="M0 0 C2 1 2 1 2.859375 3.265625 C3.15328125 4.25046875 3.4471875 5.2353125 3.75 6.25 C5.64021576 12.24406822 8.13950206 17.75628261 10.92578125 23.3828125 C11.28027344 24.24648438 11.63476562 25.11015625 12 26 C11.67 26.66 11.34 27.32 11 28 C7.18620785 24.56751922 5.75505311 20.3418994 3.8125 15.6875 C3.26045898 14.42389648 3.26045898 14.42389648 2.69726562 13.13476562 C0.78525056 8.59772059 -0.49977164 5.02229535 0 0 Z " fill="#10558B" transform="translate(199,712)"/>
<path d="M0 0 C9.51613329 5.8025203 15.09042811 13.65213173 21 23 C20.67 23.66 20.34 24.32 20 25 C17.35614445 22.55078413 15.42278029 19.83290486 13.375 16.875 C9.88610796 11.99184812 6.06727513 7.86858639 1.6875 3.77734375 C0 2 0 2 0 0 Z " fill="#0D548D" transform="translate(475,501)"/>
<path d="M0 0 C0 4.7507338 -2.90574788 7.56049449 -6 11 C-7.99208054 12.68070072 -10.02190229 14.19850868 -12.16796875 15.67578125 C-14.0377934 16.95007686 -14.0377934 16.95007686 -15.5703125 18.59375 C-17.47219065 20.46444982 -19.5092315 21.12486512 -22 22 C-20.63062928 18.76330556 -19.26999187 17.21075147 -16.375 15.25 C-11.7586947 11.94304675 -7.92989261 8.07850199 -4 4 C-2.66899563 2.66434177 -1.33628644 1.33037367 0 0 Z " fill="#0E5991" transform="translate(735,626)"/>
<path d="M0 0 C8.88528087 2.53865168 16.82106093 6.78288228 25 11 C25.66 11.33 26.32 11.66 27 12 C27 12.66 27 13.32 27 14 C23.78980652 13.62233018 22.00118309 13.00081563 19.30859375 11.14453125 C15.11629426 8.42720844 10.80777079 6.87384321 6.12695312 5.20117188 C4.38603713 4.54680963 2.68810402 3.78056598 1 3 C0.67 2.01 0.34 1.02 0 0 Z " fill="#0D5791" transform="translate(443,484)"/>
<path d="M0 0 C0.66 0 1.32 0 2 0 C4.05138723 6.8598389 4.08093621 15.49580134 1 22 C0.34 22.66 -0.32 23.32 -1 24 C-0.67 16.08 -0.34 8.16 0 0 Z " fill="#0E5B94" transform="translate(688,557)"/>
<path d="M0 0 C6.89830347 0.34491517 11.35394164 4.13389521 15.87890625 9.03515625 C18.97131139 12.8737566 18.97131139 12.8737566 20 15 C19.65234375 17.2421875 19.65234375 17.2421875 19 19 C18.48953125 18.25556641 18.48953125 18.25556641 17.96875 17.49609375 C13.03558355 10.58178865 7.43266734 5.18087538 0 1 C0 0.67 0 0.34 0 0 Z " fill="#0C5790" transform="translate(657,399)"/>
<path d="M0 0 C0.66 0 1.32 0 2 0 C-0.97015706 8.81618049 -8.93904546 15.29114314 -16 21 C-16 18 -16 18 -13.515625 15.29296875 C-12.43430687 14.25026912 -11.34540162 13.21539431 -10.25 12.1875 C-7.05686366 9.17388209 -4.09403074 6.33991752 -1.734375 2.61328125 C-1.16203125 1.75089844 -0.5896875 0.88851562 0 0 Z " fill="#135A90" transform="translate(799,759)"/>
<path d="M0 0 C0.33 0 0.66 0 1 0 C1.21997852 4.07018043 1.41618495 8.14080382 1.59204102 12.21313477 C1.65479842 13.5933161 1.7236322 14.97323697 1.79907227 16.3527832 C2.27491017 25.14460705 1.99703466 32.66905512 -1 41 C-1.33 41 -1.66 41 -2 41 C-2.02749766 39.62511713 -2.0466164 38.25006609 -2.0625 36.875 C-2.07410156 36.10929688 -2.08570313 35.34359375 -2.09765625 34.5546875 C-2 32 -2 32 -1.51367188 29.23242188 C-1.00537667 26.03383416 -0.79570116 22.96166205 -0.68359375 19.7265625 C-0.64169922 18.57285156 -0.59980469 17.41914062 -0.55664062 16.23046875 C-0.51732422 15.04066406 -0.47800781 13.85085938 -0.4375 12.625 C-0.39431641 11.41199219 -0.35113281 10.19898438 -0.30664062 8.94921875 C-0.20094487 5.96624968 -0.09884679 2.98320258 0 0 Z " fill="#186CA4" transform="translate(750,558)"/>
<path d="M0 0 C7.06193689 2.31296888 11.20767666 8.08747458 15 14.25 C16.01633915 17.04493266 16.26006504 19.05259618 16 22 C13.94907629 19.53889155 12.62638867 17.16608002 11.375 14.25 C9.17032954 9.61498414 5.76740017 6.85360466 1.828125 3.6640625 C1.22484375 3.11492188 0.6215625 2.56578125 0 2 C0 1.34 0 0.68 0 0 Z " fill="#0E5A94" transform="translate(672,534)"/>
<path d="M0 0 C0.61270752 0.19118408 1.22541504 0.38236816 1.85668945 0.5793457 C-14.85173879 9.39483545 -14.85173879 9.39483545 -23.14331055 10.5793457 C-22.48331055 10.2493457 -21.82331055 9.9193457 -21.14331055 9.5793457 C-21.14331055 8.9193457 -21.14331055 8.2593457 -21.14331055 7.5793457 C-20.19069336 7.25321289 -19.23807617 6.92708008 -18.2565918 6.59106445 C-16.98956285 6.14995067 -15.72264142 5.708528 -14.45581055 5.2668457 C-13.21444336 4.83758789 -11.97307617 4.40833008 -10.6940918 3.96606445 C-7.17982036 2.72673892 -7.17982036 2.72673892 -4.4362793 0.84887695 C-2.14331055 -0.4206543 -2.14331055 -0.4206543 0 0 Z " fill="#0E5991" transform="translate(709.143310546875,649.420654296875)"/>
<path d="M0 0 C3.27075883 -0.0580476 6.54138524 -0.09361165 9.8125 -0.125 C10.74126953 -0.14175781 11.67003906 -0.15851563 12.62695312 -0.17578125 C13.51962891 -0.18222656 14.41230469 -0.18867188 15.33203125 -0.1953125 C16.15421143 -0.20578613 16.9763916 -0.21625977 17.82348633 -0.22705078 C21.50983993 0.15750433 24.11713883 2.81300187 27 5 C17.88310149 4.27643663 8.98361723 2.65707093 0 1 C0 0.67 0 0.34 0 0 Z " fill="#09528B" transform="translate(691,208)"/>
<path d="M0 0 C5.94 0 11.88 0 18 0 C18 0.66 18 1.32 18 2 C19.32 2.33 20.64 2.66 22 3 C20.81664062 2.98839844 19.63328125 2.97679687 18.4140625 2.96484375 C10.20139628 2.90927062 2.16124606 2.94693599 -6 4 C-3 2 -3 2 0 2 C0 1.34 0 0.68 0 0 Z " fill="#0E5C96" transform="translate(384,392)"/>
<path d="M0 0 C0 0.66 0 1.32 0 2 C0.66 2.33 1.32 2.66 2 3 C1.01902344 2.86722656 0.03804688 2.73445313 -0.97265625 2.59765625 C-10.30879784 1.365416 -19.59593906 0.51344011 -29 0 C-29 -0.33 -29 -0.66 -29 -1 C-18.97799937 -2.26991104 -9.89842269 -1.53749569 0 0 Z " fill="#14659F" transform="translate(428,338)"/>
<path d="M0 0 C-3.65763696 2.43842464 -7.18636085 3.40803052 -11.375 4.625 C-12.13039063 4.85445313 -12.88578125 5.08390625 -13.6640625 5.3203125 C-17.53815042 6.4581565 -20.91648182 7.30911094 -25 7 C-22.42178861 4.42178861 -20.17300626 3.97565192 -16.6875 2.9375 C-15.55699219 2.59589844 -14.42648437 2.25429688 -13.26171875 1.90234375 C-8.723359 0.64682147 -4.71480551 -0.13470873 0 0 Z " fill="#0E5891" transform="translate(367,338)"/>
<path d="M0 0 C-0.66 0 -1.32 0 -2 0 C-2 0.66 -2 1.32 -2 2 C-9.82316305 4.29370226 -16.84524526 5.433422 -25 5 C-20.79017688 2.74264441 -16.57305272 1.83239524 -11.9375 0.8125 C-11.12216797 0.62236328 -10.30683594 0.43222656 -9.46679688 0.23632812 C-8.29020508 -0.02567383 -8.29020508 -0.02567383 -7.08984375 -0.29296875 C-6.02044556 -0.53309692 -6.02044556 -0.53309692 -4.92944336 -0.77807617 C-3 -1 -3 -1 0 0 Z " fill="#0D538A" transform="translate(729,810)"/>
<path d="M0 0 C3.57107403 1.33040013 6.70226642 2.92889527 9.9375 4.9375 C13.55911068 7.15160877 17.16544372 9.18363124 21 11 C18.68984982 11.80157883 17.43762662 12.15261745 15.09301758 11.33496094 C14.45001709 10.97176758 13.8070166 10.60857422 13.14453125 10.234375 C12.08782227 9.64076172 12.08782227 9.64076172 11.00976562 9.03515625 C9.92211914 8.39900391 9.92211914 8.39900391 8.8125 7.75 C8.07580078 7.34136719 7.33910156 6.93273437 6.58007812 6.51171875 C1.13127309 3.39381927 1.13127309 3.39381927 0 0 Z " fill="#0F578F" transform="translate(257,791)"/>
<path d="M0 0 C1.485 0.99 1.485 0.99 3 2 C3.68176577 10.04483609 2.17296452 18.05107077 1 26 C0.67 26 0.34 26 0 26 C-1.42861738 17.26956048 -0.65454448 8.77089601 0 0 Z " fill="#12629C" transform="translate(831,665)"/>
<path d="M0 0 C0.33 0 0.66 0 1 0 C1.35837083 4.82746592 0.69116252 7.18950202 -2.1875 11.0625 C-2.82171875 11.91714844 -3.4559375 12.77179688 -4.109375 13.65234375 C-6.26176383 16.32504145 -8.46304259 18.69367508 -11 21 C-10.35541706 17.28929283 -8.69315211 14.74031774 -6.625 11.625 C-4.14914157 7.82732803 -1.89136002 4.11648946 0 0 Z " fill="#115F96" transform="translate(733,459)"/>
<path d="M0 0 C0.66 0.33 1.32 0.66 2 1 C0.2308289 3.10558394 -1.5402601 5.20950158 -3.3125 7.3125 C-3.81201172 7.90740234 -4.31152344 8.50230469 -4.82617188 9.11523438 C-5.31279297 9.69208984 -5.79941406 10.26894531 -6.30078125 10.86328125 C-6.74591064 11.39219971 -7.19104004 11.92111816 -7.6496582 12.46606445 C-9.03986605 14.04528627 -10.49726496 15.52812987 -12 17 C-12 13.82105357 -11.61407841 13.03235523 -10 10.4375 C-7.83236881 7.37471465 -7.83236881 7.37471465 -8 5 C-7.236875 4.731875 -6.47375 4.46375 -5.6875 4.1875 C-3.12619116 3.05575888 -1.80307062 2.08776599 0 0 Z " fill="#0C538A" transform="translate(312,363)"/>
<path d="M0 0 C3.73724772 0.55153215 5.2235991 1.96149761 7.625 4.8125 C8.21539062 5.49957031 8.80578125 6.18664062 9.4140625 6.89453125 C12.270532 10.68674076 13.26509935 13.22821165 13 18 C10.98112369 15.98112369 10.04978923 14.32975848 8.75 11.8125 C6.31208472 7.31509211 3.44755769 3.76826073 0 0 Z " fill="#0D5890" transform="translate(424,403)"/>
<path d="M0 0 C1.216875 0.433125 2.43375 0.86625 3.6875 1.3125 C9.68448771 3.32426904 15.82563257 4.65442688 22 6 C22 6.33 22 6.66 22 7 C14.40626518 7.5197233 7.63738294 7.08349279 1 3 C0.67 2.01 0.34 1.02 0 0 Z " fill="#0B548E" transform="translate(365,606)"/>
<path d="M0 0 C0.33 0.99 0.66 1.98 1 3 C-2.26787281 7.84910159 -6.49748669 11.80118255 -12 14 C-14.24609375 13.62890625 -14.24609375 13.62890625 -16 13 C-15.26394531 12.56429687 -14.52789063 12.12859375 -13.76953125 11.6796875 C-8.2114954 8.28759693 -3.77462572 5.33653981 0 0 Z " fill="#0E5790" transform="translate(682,589)"/>
<path d="M0 0 C0.99 0.33 1.98 0.66 3 1 C1.71034824 2.37562854 0.37310707 3.70766393 -1 5 C-1.66 5 -2.32 5 -3 5 C-3 5.66 -3 6.32 -3 7 C-7.38461538 10 -7.38461538 10 -10 10 C-10 10.66 -10 11.32 -10 12 C-10.99 12 -11.98 12 -13 12 C-13 11.01 -13 10.02 -13 9 C-10.91796875 7.5 -10.91796875 7.5 -8.1875 6 C-5.03327758 4.25220576 -2.41602732 2.69696073 0 0 Z " fill="#0B5790" transform="translate(717,482)"/>
<path d="M0 0 C1.66666667 1.66666667 3.33333333 3.33333333 5 5 C6.2684375 6.2375 6.2684375 6.2375 7.5625 7.5 C9.89129944 9.88851225 11.96378497 12.360462 14 15 C9.74585722 14.50913737 6.91963766 11.92744418 4 9 C0 3.73684211 0 3.73684211 0 0 Z " fill="#0D568F" transform="translate(350,591)"/>
<path d="M0 0 C6.93 0.33 13.86 0.66 21 1 C21 1.33 21 1.66 21 2 C10.11 2.495 10.11 2.495 -1 3 C-0.67 2.01 -0.34 1.02 0 0 Z " fill="#0E5D97" transform="translate(331,206)"/>
<path d="M0 0 C2.26223894 3.39335841 2.83862411 6.02477632 3.6875 10 C4.09548828 11.85625 4.09548828 11.85625 4.51171875 13.75 C5 17 5 17 4 20 C1.60468304 14.58450079 -0.15071685 10.2487459 -0.0625 4.25 C-0.05347656 3.45078125 -0.04445312 2.6515625 -0.03515625 1.828125 C-0.02355469 1.22484375 -0.01195312 0.6215625 0 0 Z " fill="#0D4F84" transform="translate(194,691)"/>
<path d="M0 0 C6.86036401 0.65965039 13.34443923 2.2362764 20 4 C20 4.33 20 4.66 20 5 C13.59646678 5.2361959 8.15370839 4.823321 2 3 C2 2.34 2 1.68 2 1 C1.34 0.67 0.68 0.34 0 0 Z " fill="#10598F" transform="translate(298,810)"/>
<path d="M0 0 C2.87770097 2.45596893 3.96687126 4.90889595 5.25 8.4375 C5.60578125 9.38496094 5.9615625 10.33242188 6.328125 11.30859375 C7.01466386 14.05874071 6.96622898 15.38003295 6 18 C0 6.57142857 0 6.57142857 0 0 Z " fill="#0B558E" transform="translate(496,527)"/>
<path d="M0 0 C-1 2 -1 2 -3.80078125 3.10546875 C-4.95964844 3.46253906 -6.11851562 3.81960938 -7.3125 4.1875 C-9.03919922 4.73470703 -9.03919922 4.73470703 -10.80078125 5.29296875 C-13.79539693 5.95478247 -15.19748119 6.08640853 -18 5 C-15.94175571 4.15621025 -13.87820214 3.32536378 -11.8125 2.5 C-10.66394531 2.0359375 -9.51539063 1.571875 -8.33203125 1.09375 C-5.28009923 0.09194348 -3.16884928 -0.23870804 0 0 Z " fill="#0D558D" transform="translate(451,660)"/>
<path d="M0 0 C0.33 0 0.66 0 1 0 C1.28307925 7.24997422 0.50974035 13.90961228 -1 21 C-1.33 21 -1.66 21 -2 21 C-2.20177072 13.64657821 -2.21211746 7.05112439 0 0 Z " fill="#105A92" transform="translate(195,320)"/>
<path d="M0 0 C4.12172083 3.76843047 7.63068221 7.88904305 10 13 C9.67 13.66 9.34 14.32 9 15 C6.55624008 12.71035107 4.68459771 10.27347809 2.8125 7.5 C2.28269531 6.7265625 1.75289063 5.953125 1.20703125 5.15625 C0 3 0 3 0 0 Z " fill="#0D548B" transform="translate(481,368)"/>
<path d="M0 0 C5.96564796 0.50771472 10.63809899 2.38592128 16 5 C16 5.66 16 6.32 16 7 C10.53262809 5.25192871 5.24175152 3.34205919 0 1 C0 0.67 0 0.34 0 0 Z " fill="#0C558E" transform="translate(358,521)"/>
<path d="M0 0 C0.33 0.66 0.66 1.32 1 2 C-0.14453125 4.78515625 -0.14453125 4.78515625 -1.8125 8.0625 C-2.35519531 9.14660156 -2.89789062 10.23070312 -3.45703125 11.34765625 C-5 14 -5 14 -7 15 C-6.41924692 11.27790075 -5.38005719 8.50730838 -3.5 5.25 C-3.0565625 4.47140625 -2.613125 3.6928125 -2.15625 2.890625 C-1 1 -1 1 0 0 Z " fill="#0E558D" transform="translate(744,609)"/>
<path d="M0 0 C4.84659077 0.59104765 8.60748167 1.97944157 13 4 C13 4.66 13 5.32 13 6 C11.58194169 5.71517632 10.16559621 5.42181856 8.75 5.125 C7.96109375 4.96257813 7.1721875 4.80015625 6.359375 4.6328125 C4.03168856 4.00849925 2.10968048 3.15161458 0 2 C0 1.34 0 0.68 0 0 Z " fill="#0D5E99" transform="translate(396,535)"/>
<path d="M0 0 C0.33 0 0.66 0 1 0 C1.77040851 6.06696699 2.09706112 11.88514973 2 18 C-0.88939061 15.11060939 -0.84994801 11.91499273 -1 8 C-0.80695971 5.28824353 -0.4321711 2.68906465 0 0 Z " fill="#115D93" transform="translate(280,579)"/>
<path d="M0 0 C0.99 0.495 0.99 0.495 2 1 C3.14077657 4.42232972 3.09815117 7.08673217 3.0625 10.6875 C3.05347656 11.86699219 3.04445313 13.04648437 3.03515625 14.26171875 C3.02355469 15.16535156 3.01195312 16.06898438 3 17 C2.67 17 2.34 17 2 17 C-0.29612756 5.47835991 -0.29612756 5.47835991 0 0 Z " fill="#146199" transform="translate(747,540)"/>
<path d="M0 0 C0.33 1.32 0.66 2.64 1 4 C1.66 4 2.32 4 3 4 C3.98248524 8.0527516 4.08159574 11.83861737 4 16 C0.78235549 11.17353323 -0.36261136 5.80178176 0 0 Z " fill="#0B5085" transform="translate(288,448)"/>
<path d="M0 0 C0.66 0.33 1.32 0.66 2 1 C-4.26637555 7.44541485 -4.26637555 7.44541485 -8 10 C-8.99 9.67 -9.98 9.34 -11 9 C-7.37 6.03 -3.74 3.06 0 0 Z " fill="#0C5188" transform="translate(325,352)"/>
<path d="M0 0 C0.33 0 0.66 0 1 0 C1.19672365 1.72814161 1.38196799 3.45759197 1.5625 5.1875 C1.66691406 6.15042969 1.77132812 7.11335937 1.87890625 8.10546875 C1.99758751 10.94233377 1.67765639 13.25423671 1 16 C1.66 16 2.32 16 3 16 C3 16.66 3 17.32 3 18 C1.68 17.67 0.36 17.34 -1 17 C-0.67 11.39 -0.34 5.78 0 0 Z " fill="#0E629C" transform="translate(528,648)"/>
<path d="M0 0 C1.58624235 0.42683239 3.1689098 0.86696158 4.75 1.3125 C6.07257813 1.67794922 6.07257813 1.67794922 7.421875 2.05078125 C10.05772505 3.02125331 11.85407326 4.21005644 14 6 C9.45319073 5.45438289 5.2274734 4.81177431 1 3 C0.67 2.01 0.34 1.02 0 0 Z " fill="#0C558E" transform="translate(382,461)"/>
<path d="M0 0 C1.29608947 0.93137592 2.58671632 1.8703566 3.875 2.8125 C4.59429687 3.33457031 5.31359375 3.85664063 6.0546875 4.39453125 C8 6 8 6 10 9 C6.39755548 8.69121904 5.00654002 8.00552268 2.1875 5.625 C0 3 0 3 0 0 Z " fill="#0B558E" transform="translate(359,447)"/>
<path d="M0 0 C5.56890517 0.47986031 10.67067568 1.29915181 16 3 C16 3.33 16 3.66 16 4 C10.06997733 4.37851209 5.52760359 3.10575375 0 1 C0 0.67 0 0.34 0 0 Z " fill="#0C558F" transform="translate(671,343)"/>
<path d="M0 0 C1.32 0.33 2.64 0.66 4 1 C0.7 3.64 -2.6 6.28 -6 9 C-6 5.51876869 -5.58848696 5.13479364 -3.25 2.75 C-2.73953125 2.20859375 -2.2290625 1.6671875 -1.703125 1.109375 C-0.86007813 0.56023437 -0.86007813 0.56023437 0 0 Z " fill="#136299" transform="translate(232,253)"/>
<path d="M0 0 C-0.33 0.66 -0.66 1.32 -1 2 C-6.03693964 3.2194696 -10.9594101 3.16321305 -16 2 C-16 1.67 -16 1.34 -16 1 C-10.61509359 0.08342019 -5.45769811 -0.11138159 0 0 Z " fill="#115F98" transform="translate(432,666)"/>
<path d="M0 0 C6.4 0.36923077 6.4 0.36923077 9.4375 3.5625 C9.953125 4.366875 10.46875 5.17125 11 6 C10.01 6.495 10.01 6.495 9 7 C7.4972763 6.02501855 5.99788037 5.04490611 4.5 4.0625 C3.6646875 3.51722656 2.829375 2.97195313 1.96875 2.41015625 C1.3190625 1.94480469 0.669375 1.47945312 0 1 C0 0.67 0 0.34 0 0 Z " fill="#0C5792" transform="translate(314,647)"/>
<path d="M0 0 C0.66 0 1.32 0 2 0 C0.6302836 3.99500618 -1.25722422 6.80009492 -4 10 C-4.99 9.67 -5.98 9.34 -7 9 C-5.88266271 7.49428343 -4.75589965 5.99555708 -3.625 4.5 C-2.99851562 3.6646875 -2.37203125 2.829375 -1.7265625 1.96875 C-1.15679688 1.3190625 -0.58703125 0.669375 0 0 Z " fill="#0E5389" transform="translate(799,759)"/>
<path d="M0 0 C1.34578562 0.98317792 2.68125324 1.98084115 4 3 C2.37399059 2.9129995 0.74910322 2.8048219 -0.875 2.6875 C-1.77992188 2.62949219 -2.68484375 2.57148438 -3.6171875 2.51171875 C-6 2 -6 2 -8 -1 C-4.30741897 -2.23086034 -3.41793707 -1.66728638 0 0 Z " fill="#105D96" transform="translate(714,210)"/>
<path d="M0 0 C-0.33 0.66 -0.66 1.32 -1 2 C-3.88211302 2.96070434 -5.69850044 3.10581883 -8.6875 3.0625 C-9.89986328 3.04896484 -9.89986328 3.04896484 -11.13671875 3.03515625 C-12.05904297 3.01775391 -12.05904297 3.01775391 -13 3 C-10.37358828 1.24905885 -8.89308789 0.54725362 -5.9375 -0.1875 C-5.24527344 -0.36667969 -4.55304687 -0.54585937 -3.83984375 -0.73046875 C-2 -1 -2 -1 0 0 Z " fill="#0B568F" transform="translate(665,604)"/>
<path d="M0 0 C1.79379098 0.44994757 3.58498928 0.91024143 5.375 1.375 C6.37273437 1.63023437 7.37046875 1.88546875 8.3984375 2.1484375 C11 3 11 3 13 5 C8.13761177 5.34731345 5.17281491 4.52309739 1 2 C0.67 1.34 0.34 0.68 0 0 Z " fill="#0C548D" transform="translate(405,470)"/>
<path d="M0 0 C0.33 0 0.66 0 1 0 C1.1799928 5.21979128 0.97094808 9.07262981 -1 14 C-1.33 14 -1.66 14 -2 14 C-2.21192221 8.80790596 -1.5912689 4.873261 0 0 Z " fill="#094A80" transform="translate(290,400)"/>
<path d="M0 0 C1.33804687 0.04060547 1.33804687 0.04060547 2.703125 0.08203125 C3.37859375 0.11683594 4.0540625 0.15164062 4.75 0.1875 C1.63089144 1.98025866 -0.92682428 2.53040718 -4.5 2.8125 C-5.39203125 2.88726562 -6.2840625 2.96203125 -7.203125 3.0390625 C-7.87859375 3.08804688 -8.5540625 3.13703125 -9.25 3.1875 C-6.10408067 0.38704377 -4.182936 -0.16511589 0 0 Z " fill="#0D578F" transform="translate(323.25,207.8125)"/>
<path d="M0 0 C4.05606165 0.46800711 7.46588679 0.87953208 11 3 C11 3.66 11 4.32 11 5 C6.87248551 4.39301257 3.6678852 2.96189209 0 1 C0 0.67 0 0.34 0 0 Z " fill="#0B548D" transform="translate(660,529)"/>
<path d="M0 0 C2.07384637 2.28176413 2.98397191 3.44323483 3.07421875 6.578125 C2.94660156 7.45984375 2.81898438 8.3415625 2.6875 9.25 C2.50767578 10.58804687 2.50767578 10.58804687 2.32421875 11.953125 C2.21722656 12.62859375 2.11023438 13.3040625 2 14 C-0.28062828 10.57905758 -0.21925007 9.31812778 -0.125 5.3125 C-0.10695313 4.31863281 -0.08890625 3.32476562 -0.0703125 2.30078125 C-0.04710937 1.54152344 -0.02390625 0.78226562 0 0 Z " fill="#136BA7" transform="translate(498,411)"/>
<path d="M0 0 C2.74277578 3.19990508 4.6302836 6.00499382 6 10 C2.78970286 8.89300099 1.99031023 7.98396175 0.1875 5 C-0.4003125 3.515 -0.4003125 3.515 -1 2 C-0.67 1.34 -0.34 0.68 0 0 Z " fill="#126198" transform="translate(298,475)"/>
<path d="M0 0 C3.09423168 3.09423168 3.93706005 6.5523812 4.125 10.875 C4.08375 11.57625 4.0425 12.2775 4 13 C0.25474201 9.25474201 0.31090051 5.01729091 0 0 Z " fill="#0A4D85" transform="translate(494,391)"/>
<path d="M0 0 C0.66 0.33 1.32 0.66 2 1 C0.76055724 1.86941494 -0.49207059 2.72005457 -1.75 3.5625 C-2.44609375 4.03816406 -3.1421875 4.51382812 -3.859375 5.00390625 C-6 6 -6 6 -8.265625 5.65234375 C-8.83796875 5.43707031 -9.4103125 5.22179687 -10 5 C-8.38007835 4.13624104 -6.75388139 3.28424146 -5.125 2.4375 C-4.22007812 1.96183594 -3.31515625 1.48617188 -2.3828125 0.99609375 C-1.20332031 0.50302734 -1.20332031 0.50302734 0 0 Z " fill="#0A518A" transform="translate(339,345)"/>
<path d="M0 0 C-1 2 -1 2 -3.25 3.125 C-6.01613295 4.00513321 -8.12048351 4.1645438 -11 4 C-3.77464789 -1.88732394 -3.77464789 -1.88732394 0 0 Z " fill="#0B4F83" transform="translate(749,802)"/>
<path d="M0 0 C3.08089673 2.77280706 4.68775452 5.06326356 6 9 C3.5067466 8.00269864 2.22532561 7.34925469 0.75 5.0625 C0 3 0 3 0 0 Z " fill="#0E5186" transform="translate(211,741)"/>
<path d="M0 0 C3.73487777 0.4979837 5.81237635 0.87491756 9 3 C9 3.66 9 4.32 9 5 C7.68428397 4.7452486 6.37239624 4.47065859 5.0625 4.1875 C4.33160156 4.03667969 3.60070312 3.88585937 2.84765625 3.73046875 C2.23792969 3.48941406 1.62820313 3.24835938 1 3 C0.67 2.01 0.34 1.02 0 0 Z " fill="#0E5C96" transform="translate(414,397)"/>
<path d="M0 0 C0.95465783 2.16967689 1.14401212 3.56328793 0.3984375 5.82421875 C-0.35870385 7.5684743 -1.17609198 9.28627131 -2 11 C-2.66 11 -3.32 11 -4 11 C-3.39301257 6.87248551 -1.96189209 3.6678852 0 0 Z " fill="#0D538C" transform="translate(297,382)"/>
<path d="M0 0 C1.258125 0.12375 2.51625 0.2475 3.8125 0.375 C4.87404297 0.47941406 4.87404297 0.47941406 5.95703125 0.5859375 C8 1 8 1 11 3 C8.03 3 5.06 3 2 3 C2 2.34 2 1.68 2 1 C1.34 0.67 0.68 0.34 0 0 Z " fill="#0B4C81" transform="translate(298,810)"/>
<path d="M0 0 C6.93 0.495 6.93 0.495 14 1 C14 1.33 14 1.66 14 2 C10.37 2.33 6.74 2.66 3 3 C3 2.34 3 1.68 3 1 C2.01 0.67 1.02 0.34 0 0 Z " fill="#1971AB" transform="translate(364,666)"/>
<path d="M0 0 C0 4.38968456 -2.12805101 5.76905739 -5 9 C-5.33 8.01 -5.66 7.02 -6 6 C-2.83636364 1.41818182 -2.83636364 1.41818182 0 0 Z " fill="#0B5188" transform="translate(735,626)"/>
<path d="M0 0 C1.60080151 4.00200378 0.29279692 7.04556236 -1 11 C-1.33 11 -1.66 11 -2 11 C-2.25 3.375 -2.25 3.375 0 0 Z " fill="#0A4C82" transform="translate(503,596)"/>
<path d="M0 0 C0 4.38968456 -2.12805101 5.76905739 -5 9 C-5.33 8.01 -5.66 7.02 -6 6 C-2.83636364 1.41818182 -2.83636364 1.41818182 0 0 Z " fill="#0B5087" transform="translate(728,471)"/>
<path d="M0 0 C0 0.66 0 1.32 0 2 C-3.21451269 3.60725635 -6.43612536 3.05748185 -10 3 C-6.41600853 0.61067235 -4.26804999 0 0 0 Z " fill="#0B528A" transform="translate(418,609)"/>
<path d="M0 0 C3.37503669 1.1858237 5.64722731 2.27573689 8 5 C4.33776842 4.50510384 2.33006074 3.94323463 0 1 C0 0.67 0 0.34 0 0 Z " fill="#0C4F86" transform="translate(257,791)"/>
<path d="M0 0 C0.66 0 1.32 0 2 0 C2 0.66 2 1.32 2 2 C4.31 2.33 6.62 2.66 9 3 C8.67 3.66 8.34 4.32 8 5 C4.5625 4.1875 4.5625 4.1875 1 3 C0.67 2.01 0.34 1.02 0 0 Z " fill="#12649E" transform="translate(702,492)"/>
<path d="M0 0 C0.33 0 0.66 0 1 0 C1.24954005 1.43410368 1.47392642 2.87260072 1.6875 4.3125 C1.87892578 5.51326172 1.87892578 5.51326172 2.07421875 6.73828125 C2 9 2 9 -1 12 C-0.67 8.04 -0.34 4.08 0 0 Z " fill="#1D6FA7" transform="translate(192,335)"/>
<path d="M0 0 C4 1 4 1 4 1 Z " fill="#1A6CA3" transform="translate(496,821)"/>
<path d="M0 0 C0.99 0.33 1.98 0.66 3 1 C2.01 1.33 1.02 1.66 0 2 C0 1.34 0 0.68 0 0 Z " fill="#1D6CA3" transform="translate(353,821)"/>
<path d="M0 0 C1 4 1 4 1 4 Z " fill="#1F6FA2" transform="translate(188,668)"/>
<path d="M0 0 C0.66 0 1.32 0 2 0 C1.67 0.66 1.34 1.32 1 2 C0.67 1.34 0.34 0.68 0 0 Z " fill="#1C6EA3" transform="translate(416,821)"/>
<path d="M0 0 C3 1 3 1 3 1 Z " fill="#1B6EA5" transform="translate(391,821)"/>
<path d="M0 0 C3 1 3 1 3 1 Z " fill="#1B6EA6" transform="translate(716,815)"/>
<path d="M0 0 C3 1 3 1 3 1 Z " fill="#1D6CA2" transform="translate(297,813)"/>
<path d="M0 0 C3 1 3 1 3 1 Z " fill="#1977B2" transform="translate(424,664)"/>
<path d="M0 0 C0.33 0.66 0.66 1.32 1 2 C0.34 1.67 -0.32 1.34 -1 1 C-0.67 0.67 -0.34 0.34 0 0 Z " fill="#1773AF" transform="translate(375,664)"/>
<path d="M0 0 C0.66 0.66 1.32 1.32 2 2 C1.34 2 0.68 2 0 2 C0 1.34 0 0.68 0 0 Z " fill="#1873AE" transform="translate(352,442)"/>
<path d="M0 0 C0.66 0.66 1.32 1.32 2 2 C1.34 2 0.68 2 0 2 C0 1.34 0 0.68 0 0 Z " fill="#1A76B2" transform="translate(481,373)"/>
<path d="M0 0 C3 1 3 1 3 1 Z " fill="#1674B0" transform="translate(424,341)"/>
<path d="M0 0 C2 1 2 1 2 1 Z " fill="#1D6FA5" transform="translate(656,821)"/>
<path d="M0 0 C2 1 2 1 2 1 Z " fill="#1B6EA4" transform="translate(568,821)"/>
<path d="M0 0 C2 1 2 1 2 1 Z " fill="#1C6DA3" transform="translate(369,821)"/>
<path d="M0 0 C2 1 2 1 2 1 Z " fill="#1C6EA4" transform="translate(360,821)"/>
<path d="M0 0 C2 1 2 1 2 1 Z " fill="#1D6B9F" transform="translate(337,820)"/>
<path d="M0 0 C2 1 2 1 2 1 Z " fill="#1B6A9F" transform="translate(256,794)"/>
<path d="M0 0 C2 1 2 1 2 1 Z " fill="#1C6BA0" transform="translate(212,749)"/>
<path d="" fill="#1B6B9F" transform="translate(0,0)"/>
<path d="" fill="#1B6CA1" transform="translate(0,0)"/>
<path d="" fill="#1B6CA3" transform="translate(0,0)"/>
<path d="" fill="#1F70A6" transform="translate(0,0)"/>
<path d="" fill="#1F6EA1" transform="translate(0,0)"/>
<path d="M0 0 C2 1 2 1 2 1 Z " fill="#1B74AF" transform="translate(404,615)"/>
<path d="M0 0 C2 1 2 1 2 1 Z " fill="#1978B5" transform="translate(376,614)"/>
<path d="" fill="#1875AF" transform="translate(0,0)"/>
<path d="M0 0 C2 1 2 1 2 1 Z " fill="#1775B4" transform="translate(440,487)"/>
<path d="M0 0 C2 1 2 1 2 1 Z " fill="#1875B2" transform="translate(427,342)"/>
<path d="M0 0 C2 1 2 1 2 1 Z " fill="#196CA2" transform="translate(240,240)"/>
<path d="M0 0 C2 1 2 1 2 1 Z " fill="#196FA7" transform="translate(755,224)"/>
<path d="" fill="#196BA1" transform="translate(0,0)"/>
<path d="" fill="#1A6A9F" transform="translate(0,0)"/>
<path d="" fill="#1B6B9F" transform="translate(0,0)"/>
<path d="" fill="#1A6DA2" transform="translate(0,0)"/>
<path d="" fill="#1C6CA3" transform="translate(0,0)"/>
<path d="" fill="#1D6CA3" transform="translate(0,0)"/>
<path d="" fill="#1B6CA2" transform="translate(0,0)"/>
<path d="" fill="#1E6C9F" transform="translate(0,0)"/>
<path d="" fill="#1C6FA3" transform="translate(0,0)"/>
<path d="" fill="#1D6EA5" transform="translate(0,0)"/>
<path d="" fill="#1D6FA5" transform="translate(0,0)"/>
<path d="" fill="#1C70A3" transform="translate(0,0)"/>
<path d="" fill="#1C6FA4" transform="translate(0,0)"/>
<path d="" fill="#1A6EA5" transform="translate(0,0)"/>
<path d="" fill="#1B6FA4" transform="translate(0,0)"/>
<path d="" fill="#1B70A4" transform="translate(0,0)"/>
<path d="" fill="#1B6FA5" transform="translate(0,0)"/>
<path d="" fill="#1B6DA4" transform="translate(0,0)"/>
<path d="" fill="#1B6EA5" transform="translate(0,0)"/>
<path d="" fill="#1C6FA3" transform="translate(0,0)"/>
<path d="" fill="#1B6EA5" transform="translate(0,0)"/>
<path d="" fill="#1A6EA5" transform="translate(0,0)"/>
<path d="" fill="#1C6EA5" transform="translate(0,0)"/>
<path d="" fill="#1D6FA5" transform="translate(0,0)"/>
<path d="" fill="#1E70A4" transform="translate(0,0)"/>
<path d="" fill="#1B70A5" transform="translate(0,0)"/>
<path d="" fill="#1C6EA2" transform="translate(0,0)"/>
<path d="" fill="#1C6EA4" transform="translate(0,0)"/>
<path d="" fill="#1D6FA5" transform="translate(0,0)"/>
<path d="" fill="#1C6EA4" transform="translate(0,0)"/>
<path d="" fill="#1C6EA4" transform="translate(0,0)"/>
<path d="" fill="#1C6AA2" transform="translate(0,0)"/>
<path d="" fill="#1D6C9F" transform="translate(0,0)"/>
<path d="" fill="#1E6DA0" transform="translate(0,0)"/>
<path d="" fill="#1D6B9D" transform="translate(0,0)"/>
<path d="" fill="#216FA2" transform="translate(0,0)"/>
<path d="" fill="#1E6B9D" transform="translate(0,0)"/>
<path d="" fill="#1C6EA5" transform="translate(0,0)"/>
<path d="" fill="#1D6C9E" transform="translate(0,0)"/>
<path d="" fill="#1B6A9E" transform="translate(0,0)"/>
<path d="" fill="#1D75AC" transform="translate(0,0)"/>
<path d="" fill="#1D689D" transform="translate(0,0)"/>
<path d="" fill="#1B6CA1" transform="translate(0,0)"/>
<path d="" fill="#1B6A9C" transform="translate(0,0)"/>
<path d="" fill="#1F6EA3" transform="translate(0,0)"/>
<path d="" fill="#1B6C9F" transform="translate(0,0)"/>
<path d="" fill="#1D6CA1" transform="translate(0,0)"/>
<path d="" fill="#1E6FA4" transform="translate(0,0)"/>
<path d="" fill="#1C6FA3" transform="translate(0,0)"/>
<path d="" fill="#1C6DA1" transform="translate(0,0)"/>
<path d="" fill="#1A6CA1" transform="translate(0,0)"/>
<path d="" fill="#1A71A8" transform="translate(0,0)"/>
<path d="" fill="#1E70A8" transform="translate(0,0)"/>
<path d="" fill="#1A70A7" transform="translate(0,0)"/>
<path d="" fill="#206EA0" transform="translate(0,0)"/>
<path d="" fill="#1875AF" transform="translate(0,0)"/>
<path d="" fill="#1A76B1" transform="translate(0,0)"/>
<path d="" fill="#1874AF" transform="translate(0,0)"/>
<path d="" fill="#206DA0" transform="translate(0,0)"/>
<path d="" fill="#1A77B1" transform="translate(0,0)"/>
<path d="" fill="#1875AE" transform="translate(0,0)"/>
<path d="" fill="#2171A5" transform="translate(0,0)"/>
<path d="" fill="#1976B0" transform="translate(0,0)"/>
<path d="" fill="#1C76B2" transform="translate(0,0)"/>
<path d="" fill="#1773AF" transform="translate(0,0)"/>
<path d="" fill="#2171A5" transform="translate(0,0)"/>
<path d="" fill="#1773AC" transform="translate(0,0)"/>
<path d="" fill="#1977B3" transform="translate(0,0)"/>
<path d="" fill="#1C76AF" transform="translate(0,0)"/>
<path d="" fill="#1975B1" transform="translate(0,0)"/>
<path d="" fill="#1E70A6" transform="translate(0,0)"/>
<path d="" fill="#1D70A4" transform="translate(0,0)"/>
<path d="" fill="#1877B4" transform="translate(0,0)"/>
<path d="" fill="#1F71A7" transform="translate(0,0)"/>
<path d="" fill="#1974B0" transform="translate(0,0)"/>
<path d="" fill="#1676B0" transform="translate(0,0)"/>
<path d="" fill="#186FAF" transform="translate(0,0)"/>
<path d="" fill="#1E6EA5" transform="translate(0,0)"/>
<path d="" fill="#1F71A8" transform="translate(0,0)"/>
<path d="" fill="#1772AD" transform="translate(0,0)"/>
<path d="" fill="#1A77B3" transform="translate(0,0)"/>
<path d="" fill="#1B75B3" transform="translate(0,0)"/>
<path d="" fill="#1A75B1" transform="translate(0,0)"/>
<path d="" fill="#1774B1" transform="translate(0,0)"/>
<path d="" fill="#1876B3" transform="translate(0,0)"/>
<path d="" fill="#1B76B0" transform="translate(0,0)"/>
<path d="" fill="#1977B4" transform="translate(0,0)"/>
<path d="" fill="#1A73AE" transform="translate(0,0)"/>
<path d="" fill="#1978B3" transform="translate(0,0)"/>
<path d="" fill="#1B75AF" transform="translate(0,0)"/>
<path d="" fill="#1974B1" transform="translate(0,0)"/>
<path d="" fill="#1673AF" transform="translate(0,0)"/>
<path d="" fill="#1C70A5" transform="translate(0,0)"/>
<path d="" fill="#1774AF" transform="translate(0,0)"/>
<path d="" fill="#1873B1" transform="translate(0,0)"/>
<path d="" fill="#1872B0" transform="translate(0,0)"/>
<path d="" fill="#1773AD" transform="translate(0,0)"/>
<path d="" fill="#1775B1" transform="translate(0,0)"/>
<path d="" fill="#1773AE" transform="translate(0,0)"/>
<path d="" fill="#1774AF" transform="translate(0,0)"/>
<path d="" fill="#1C72AC" transform="translate(0,0)"/>
<path d="" fill="#1A72AC" transform="translate(0,0)"/>
<path d="" fill="#1772AF" transform="translate(0,0)"/>
<path d="" fill="#1672AF" transform="translate(0,0)"/>
<path d="" fill="#1974B0" transform="translate(0,0)"/>
<path d="" fill="#1B76B0" transform="translate(0,0)"/>
<path d="" fill="#1974B1" transform="translate(0,0)"/>
<path d="" fill="#1876B1" transform="translate(0,0)"/>
<path d="" fill="#1A75B2" transform="translate(0,0)"/>
<path d="" fill="#1675B4" transform="translate(0,0)"/>
<path d="" fill="#1772AE" transform="translate(0,0)"/>
<path d="" fill="#1974B3" transform="translate(0,0)"/>
<path d="" fill="#1B75B3" transform="translate(0,0)"/>
<path d="" fill="#1A74AD" transform="translate(0,0)"/>
<path d="" fill="#1675B1" transform="translate(0,0)"/>
<path d="" fill="#1974B1" transform="translate(0,0)"/>
<path d="" fill="#1871AB" transform="translate(0,0)"/>
<path d="" fill="#1775B0" transform="translate(0,0)"/>
<path d="" fill="#1C76B1" transform="translate(0,0)"/>
<path d="" fill="#1874B0" transform="translate(0,0)"/>
<path d="" fill="#1876B2" transform="translate(0,0)"/>
<path d="" fill="#1A79B4" transform="translate(0,0)"/>
<path d="" fill="#1876B0" transform="translate(0,0)"/>
<path d="" fill="#1874B0" transform="translate(0,0)"/>
<path d="" fill="#1975AF" transform="translate(0,0)"/>
<path d="" fill="#1875B1" transform="translate(0,0)"/>
<path d="" fill="#1C70A4" transform="translate(0,0)"/>
<path d="" fill="#1874B0" transform="translate(0,0)"/>
<path d="" fill="#1974B0" transform="translate(0,0)"/>
<path d="" fill="#1977B1" transform="translate(0,0)"/>
<path d="" fill="#1873AE" transform="translate(0,0)"/>
<path d="" fill="#1974B2" transform="translate(0,0)"/>
<path d="" fill="#1977B4" transform="translate(0,0)"/>
<path d="" fill="#1A74B1" transform="translate(0,0)"/>
<path d="" fill="#1A76B1" transform="translate(0,0)"/>
<path d="" fill="#1973AE" transform="translate(0,0)"/>
<path d="" fill="#1A76B1" transform="translate(0,0)"/>
<path d="" fill="#1A76B0" transform="translate(0,0)"/>
<path d="" fill="#1975AF" transform="translate(0,0)"/>
<path d="" fill="#1975B0" transform="translate(0,0)"/>
<path d="" fill="#1A76AF" transform="translate(0,0)"/>
<path d="" fill="#1873AE" transform="translate(0,0)"/>
<path d="" fill="#1B75B0" transform="translate(0,0)"/>
<path d="" fill="#1574AF" transform="translate(0,0)"/>
<path d="" fill="#1974AC" transform="translate(0,0)"/>
<path d="" fill="#1974B1" transform="translate(0,0)"/>
<path d="" fill="#1977B0" transform="translate(0,0)"/>
<path d="" fill="#1B79B2" transform="translate(0,0)"/>
<path d="" fill="#1975B0" transform="translate(0,0)"/>
<path d="" fill="#1A75B0" transform="translate(0,0)"/>
<path d="" fill="#1874B0" transform="translate(0,0)"/>
<path d="" fill="#1672B0" transform="translate(0,0)"/>
<path d="" fill="#1672AF" transform="translate(0,0)"/>
<path d="" fill="#1974AF" transform="translate(0,0)"/>
<path d="" fill="#1F70A4" transform="translate(0,0)"/>
<path d="" fill="#1B75B1" transform="translate(0,0)"/>
<path d="" fill="#1975B1" transform="translate(0,0)"/>
<path d="" fill="#1A75B2" transform="translate(0,0)"/>
<path d="" fill="#1774B1" transform="translate(0,0)"/>
<path d="" fill="#1B76B3" transform="translate(0,0)"/>
<path d="" fill="#1A74AF" transform="translate(0,0)"/>
<path d="" fill="#1874AF" transform="translate(0,0)"/>
<path d="" fill="#1971B0" transform="translate(0,0)"/>
<path d="" fill="#1876B3" transform="translate(0,0)"/>
<path d="" fill="#1975B3" transform="translate(0,0)"/>
<path d="" fill="#1874AF" transform="translate(0,0)"/>
<path d="" fill="#1E6FA4" transform="translate(0,0)"/>
<path d="" fill="#1875B3" transform="translate(0,0)"/>
<path d="" fill="#1772AF" transform="translate(0,0)"/>
<path d="" fill="#1F70A6" transform="translate(0,0)"/>
<path d="" fill="#1674B1" transform="translate(0,0)"/>
<path d="" fill="#1873B2" transform="translate(0,0)"/>
<path d="" fill="#1B77B4" transform="translate(0,0)"/>
<path d="" fill="#1C78B5" transform="translate(0,0)"/>
<path d="" fill="#1976B2" transform="translate(0,0)"/>
<path d="" fill="#1B76B3" transform="translate(0,0)"/>
<path d="" fill="#1874B0" transform="translate(0,0)"/>
<path d="" fill="#1B6FA6" transform="translate(0,0)"/>
<path d="" fill="#1C6FA7" transform="translate(0,0)"/>
<path d="" fill="#1E6FA9" transform="translate(0,0)"/>
<path d="" fill="#1D71A8" transform="translate(0,0)"/>
<path d="" fill="#1C6FA8" transform="translate(0,0)"/>
<path d="" fill="#1E70A5" transform="translate(0,0)"/>
<path d="" fill="#1E6EA2" transform="translate(0,0)"/>
<path d="" fill="#1C70A6" transform="translate(0,0)"/>
<path d="" fill="#1970A9" transform="translate(0,0)"/>
<path d="" fill="#1B6FA7" transform="translate(0,0)"/>
<path d="" fill="#1C6FA5" transform="translate(0,0)"/>
<path d="" fill="#1D6DA0" transform="translate(0,0)"/>
<path d="" fill="#1A6EA6" transform="translate(0,0)"/>
<path d="" fill="#1A6EA2" transform="translate(0,0)"/>
<path d="" fill="#186DA3" transform="translate(0,0)"/>
<path d="" fill="#1D6FA4" transform="translate(0,0)"/>
<path d="" fill="#1C72A8" transform="translate(0,0)"/>
<path d="" fill="#1B6EA6" transform="translate(0,0)"/>
<path d="" fill="#1C6BA5" transform="translate(0,0)"/>
<path d="" fill="#1E6DA2" transform="translate(0,0)"/>
<path d="" fill="#1F71A5" transform="translate(0,0)"/>
<path d="" fill="#186EA8" transform="translate(0,0)"/>
<path d="" fill="#196EA6" transform="translate(0,0)"/>
<path d="" fill="#1A71A6" transform="translate(0,0)"/>
<path d="" fill="#1C70A2" transform="translate(0,0)"/>
<path d="" fill="#1B6FA4" transform="translate(0,0)"/>
<path d="" fill="#1D70A6" transform="translate(0,0)"/>
</svg>
